<svg width="562" height="470" viewBox="0 0 562 470" fill="none" xmlns="http://www.w3.org/2000/svg">
<rect x="0.5" y="0.5" width="560" height="469" rx="5.5" fill="#F9F8F8" stroke="black"/>
<path d="M6 0.5H555C558.038 0.5 560.5 2.96243 560.5 6V87.5H0.5V6C0.5 2.96243 2.96243 0.5 6 0.5Z" fill="white" stroke="black"/>
<path d="M31.8949 40.5H29.6932C29.563 39.8667 29.3351 39.3104 29.0096 38.831C28.69 38.3516 28.2994 37.9491 27.8377 37.6236C27.382 37.2921 26.8759 37.0436 26.3196 36.8778C25.7633 36.7121 25.1832 36.6293 24.5795 36.6293C23.4787 36.6293 22.4814 36.9074 21.5877 37.4638C20.6999 38.0201 19.9927 38.8398 19.4659 39.9229C18.9451 41.006 18.6847 42.3348 18.6847 43.9091C18.6847 45.4834 18.9451 46.8121 19.4659 47.8952C19.9927 48.9783 20.6999 49.7981 21.5877 50.3544C22.4814 50.9107 23.4787 51.1889 24.5795 51.1889C25.1832 51.1889 25.7633 51.1061 26.3196 50.9403C26.8759 50.7746 27.382 50.529 27.8377 50.2035C28.2994 49.872 28.69 49.4666 29.0096 48.9872C29.3351 48.5019 29.563 47.9455 29.6932 47.3182H31.8949C31.7292 48.2474 31.4273 49.079 30.9893 49.8129C30.5514 50.5468 30.0069 51.1712 29.3558 51.6861C28.7048 52.1951 27.9738 52.5827 27.163 52.8491C26.3581 53.1154 25.4969 53.2486 24.5795 53.2486C23.0289 53.2486 21.6499 52.8698 20.4425 52.1122C19.2351 51.3546 18.2852 50.2775 17.5927 48.8807C16.9002 47.4839 16.554 45.8267 16.554 43.9091C16.554 41.9915 16.9002 40.3343 17.5927 38.9375C18.2852 37.5407 19.2351 36.4635 20.4425 35.706C21.6499 34.9484 23.0289 34.5696 24.5795 34.5696C25.4969 34.5696 26.3581 34.7028 27.163 34.9691C27.9738 35.2354 28.7048 35.6261 29.3558 36.141C30.0069 36.65 30.5514 37.2714 30.9893 38.0053C31.4273 38.7333 31.7292 39.5649 31.8949 40.5ZM35.1686 53V39.3636H37.1927V41.4233H37.3348C37.5834 40.7486 38.0332 40.2011 38.6842 39.7809C39.3353 39.3607 40.0692 39.1506 40.8859 39.1506C41.0398 39.1506 41.2322 39.1535 41.463 39.1594C41.6938 39.1654 41.8684 39.1742 41.9868 39.1861V41.3168C41.9157 41.299 41.753 41.2724 41.4985 41.2369C41.2499 41.1954 40.9865 41.1747 40.7084 41.1747C40.0455 41.1747 39.4536 41.3138 38.9328 41.592C38.4179 41.8642 38.0095 42.243 37.7077 42.7283C37.4117 43.2077 37.2638 43.7552 37.2638 44.3707V53H35.1686ZM49.7726 53.2841C48.4587 53.2841 47.3253 52.9941 46.3724 52.4141C45.4255 51.8281 44.6945 51.0114 44.1796 49.9638C43.6706 48.9103 43.4161 47.6851 43.4161 46.2884C43.4161 44.8916 43.6706 43.6605 44.1796 42.5952C44.6945 41.5239 45.4107 40.6894 46.328 40.0916C47.2513 39.4879 48.3285 39.1861 49.5596 39.1861C50.2698 39.1861 50.9711 39.3045 51.6636 39.5412C52.3561 39.7779 52.9864 40.1626 53.5546 40.6953C54.1228 41.2221 54.5756 41.9205 54.9129 42.7905C55.2503 43.6605 55.4189 44.7318 55.4189 46.0043V46.892H44.9076V45.081H53.2883C53.2883 44.3116 53.1344 43.625 52.8266 43.0213C52.5248 42.4176 52.0927 41.9412 51.5305 41.592C50.9741 41.2428 50.3171 41.0682 49.5596 41.0682C48.7251 41.0682 48.003 41.2753 47.3934 41.6896C46.7897 42.098 46.3251 42.6307 45.9996 43.2876C45.674 43.9446 45.5113 44.6489 45.5113 45.4006V46.608C45.5113 47.6378 45.6888 48.5108 46.0439 49.2269C46.405 49.9371 46.9051 50.4787 47.5443 50.8516C48.1835 51.2185 48.9263 51.402 49.7726 51.402C50.3231 51.402 50.8202 51.325 51.2641 51.1712C51.7139 51.0114 52.1016 50.7746 52.4271 50.4609C52.7526 50.1413 53.0042 49.7448 53.1817 49.2713L55.2059 49.8395C54.9928 50.526 54.6347 51.1297 54.1317 51.6506C53.6286 52.1655 53.0071 52.5679 52.2673 52.858C51.5275 53.142 50.6959 53.2841 49.7726 53.2841ZM63.7552 53.2841C62.6189 53.2841 61.6157 52.997 60.7456 52.4229C59.8756 51.8429 59.195 51.0262 58.7037 49.9727C58.2125 48.9132 57.9669 47.6615 57.9669 46.2173C57.9669 44.785 58.2125 43.5421 58.7037 42.4886C59.195 41.4351 59.8786 40.6213 60.7545 40.0472C61.6305 39.4731 62.6425 39.1861 63.7907 39.1861C64.6785 39.1861 65.3799 39.334 65.8948 39.63C66.4156 39.92 66.8122 40.2514 67.0844 40.6243C67.3626 40.9912 67.5786 41.2931 67.7325 41.5298H67.9101V34.8182H70.0052V53H67.9811V50.9048H67.7325C67.5786 51.1534 67.3596 51.4671 67.0756 51.8459C66.7915 52.2187 66.386 52.5531 65.8593 52.8491C65.3325 53.1391 64.6312 53.2841 63.7552 53.2841ZM64.0393 51.402C64.8798 51.402 65.59 51.183 66.17 50.745C66.75 50.3011 67.191 49.6886 67.4928 48.9073C67.7947 48.1201 67.9456 47.2116 67.9456 46.1818C67.9456 45.1638 67.7976 44.2731 67.5017 43.5096C67.2058 42.7402 66.7678 42.1424 66.1878 41.7163C65.6077 41.2842 64.8916 41.0682 64.0393 41.0682C63.1515 41.0682 62.4117 41.296 61.8199 41.7518C61.2339 42.2016 60.793 42.8142 60.4971 43.5895C60.2071 44.3589 60.0621 45.223 60.0621 46.1818C60.0621 47.1525 60.21 48.0343 60.5059 48.8274C60.8078 49.6146 61.2517 50.242 61.8376 50.7095C62.4295 51.1712 63.1634 51.402 64.0393 51.402ZM74.1334 53V39.3636H76.2286V53H74.1334ZM75.1988 37.0909C74.7904 37.0909 74.4382 36.9518 74.1423 36.6737C73.8523 36.3955 73.7073 36.0611 73.7073 35.6705C73.7073 35.2798 73.8523 34.9454 74.1423 34.6673C74.4382 34.3891 74.7904 34.25 75.1988 34.25C75.6072 34.25 75.9564 34.3891 76.2464 34.6673C76.5423 34.9454 76.6903 35.2798 76.6903 35.6705C76.6903 36.0611 76.5423 36.3955 76.2464 36.6737C75.9564 36.9518 75.6072 37.0909 75.1988 37.0909ZM85.9964 39.3636V41.1392H78.9297V39.3636H85.9964ZM80.9893 36.0966H83.0845V49.0938C83.0845 49.6856 83.1703 50.1295 83.342 50.4254C83.5195 50.7154 83.7444 50.9107 84.0167 51.0114C84.2949 51.1061 84.5878 51.1534 84.8956 51.1534C85.1264 51.1534 85.3158 51.1416 85.4638 51.1179C85.6117 51.0883 85.7301 51.0646 85.8189 51.0469L86.245 52.929C86.103 52.9822 85.9047 53.0355 85.6502 53.0888C85.3957 53.148 85.0732 53.1776 84.6825 53.1776C84.0907 53.1776 83.5107 53.0503 82.9425 52.7958C82.3802 52.5413 81.9126 52.1536 81.5398 51.6328C81.1728 51.112 80.9893 50.455 80.9893 49.6619V36.0966ZM101.719 53.2841C100.441 53.2841 99.3398 52.9822 98.4165 52.3786C97.4933 51.7749 96.783 50.9433 96.2859 49.8839C95.7887 48.8245 95.5401 47.6141 95.5401 46.2528C95.5401 44.8679 95.7946 43.6457 96.3036 42.5863C96.8185 41.521 97.5347 40.6894 98.4521 40.0916C99.3754 39.4879 100.453 39.1861 101.684 39.1861C102.642 39.1861 103.507 39.3636 104.276 39.7188C105.045 40.0739 105.676 40.571 106.167 41.2102C106.658 41.8494 106.963 42.5952 107.081 43.4474H104.986C104.826 42.826 104.471 42.2756 103.921 41.7962C103.376 41.3108 102.642 41.0682 101.719 41.0682C100.902 41.0682 100.186 41.2812 99.5707 41.7074C98.9611 42.1276 98.4846 42.7224 98.1413 43.4918C97.804 44.2553 97.6353 45.152 97.6353 46.1818C97.6353 47.2353 97.801 48.1527 98.1325 48.9339C98.4698 49.7152 98.9433 50.3219 99.5529 50.7539C100.168 51.186 100.891 51.402 101.719 51.402C102.264 51.402 102.758 51.3073 103.202 51.1179C103.646 50.9285 104.021 50.6562 104.329 50.3011C104.637 49.946 104.856 49.5199 104.986 49.0227H107.081C106.963 49.8277 106.67 50.5527 106.202 51.1978C105.741 51.837 105.128 52.346 104.365 52.7248C103.607 53.0977 102.725 53.2841 101.719 53.2841ZM114.157 53.3196C113.293 53.3196 112.509 53.1568 111.804 52.8313C111.1 52.4999 110.541 52.0234 110.126 51.402C109.712 50.7746 109.505 50.017 109.505 49.1293C109.505 48.348 109.659 47.7147 109.967 47.2294C110.274 46.7382 110.686 46.3535 111.201 46.0753C111.716 45.7971 112.284 45.59 112.905 45.4538C113.533 45.3118 114.163 45.1993 114.796 45.1165C115.625 45.0099 116.297 44.93 116.811 44.8768C117.332 44.8176 117.711 44.7199 117.948 44.5838C118.19 44.4477 118.312 44.2109 118.312 43.8736V43.8026C118.312 42.9266 118.072 42.246 117.593 41.7607C117.119 41.2753 116.4 41.0327 115.435 41.0327C114.435 41.0327 113.651 41.2517 113.083 41.6896C112.515 42.1276 112.115 42.5952 111.884 43.0923L109.896 42.3821C110.251 41.5535 110.724 40.9084 111.316 40.4467C111.914 39.9792 112.565 39.6536 113.269 39.4702C113.979 39.2808 114.678 39.1861 115.364 39.1861C115.802 39.1861 116.305 39.2393 116.874 39.3459C117.448 39.4465 118.001 39.6566 118.534 39.9762C119.072 40.2958 119.519 40.7782 119.874 41.4233C120.229 42.0684 120.407 42.9325 120.407 44.0156V53H118.312V51.1534H118.205C118.063 51.4493 117.826 51.766 117.495 52.1033C117.164 52.4407 116.723 52.7277 116.172 52.9645C115.622 53.2012 114.95 53.3196 114.157 53.3196ZM114.477 51.4375C115.305 51.4375 116.004 51.2747 116.572 50.9492C117.146 50.6237 117.578 50.2035 117.868 49.6886C118.164 49.1737 118.312 48.6321 118.312 48.0639V46.1463C118.223 46.2528 118.028 46.3505 117.726 46.4393C117.43 46.5221 117.087 46.5961 116.696 46.6612C116.311 46.7204 115.935 46.7737 115.569 46.821C115.208 46.8625 114.915 46.898 114.69 46.9276C114.145 46.9986 113.636 47.114 113.163 47.2738C112.695 47.4277 112.316 47.6615 112.026 47.9751C111.742 48.2829 111.6 48.7031 111.6 49.2358C111.6 49.9638 111.869 50.5142 112.408 50.8871C112.953 51.254 113.642 51.4375 114.477 51.4375ZM124.231 53V39.3636H126.255V41.4233H126.397C126.646 40.7486 127.096 40.2011 127.747 39.7809C128.398 39.3607 129.132 39.1506 129.948 39.1506C130.102 39.1506 130.295 39.1535 130.525 39.1594C130.756 39.1654 130.931 39.1742 131.049 39.1861V41.3168C130.978 41.299 130.815 41.2724 130.561 41.2369C130.312 41.1954 130.049 41.1747 129.771 41.1747C129.108 41.1747 128.516 41.3138 127.995 41.592C127.48 41.8642 127.072 42.243 126.77 42.7283C126.474 43.2077 126.326 43.7552 126.326 44.3707V53H124.231ZM138.267 53.2841C137.131 53.2841 136.127 52.997 135.257 52.4229C134.387 51.8429 133.707 51.0262 133.215 49.9727C132.724 48.9132 132.479 47.6615 132.479 46.2173C132.479 44.785 132.724 43.5421 133.215 42.4886C133.707 41.4351 134.39 40.6213 135.266 40.0472C136.142 39.4731 137.154 39.1861 138.302 39.1861C139.19 39.1861 139.892 39.334 140.407 39.63C140.927 39.92 141.324 40.2514 141.596 40.6243C141.874 40.9912 142.09 41.2931 142.244 41.5298H142.422V34.8182H144.517V53H142.493V50.9048H142.244C142.09 51.1534 141.871 51.4671 141.587 51.8459C141.303 52.2187 140.898 52.5531 140.371 52.8491C139.844 53.1391 139.143 53.2841 138.267 53.2841ZM138.551 51.402C139.391 51.402 140.102 51.183 140.682 50.745C141.262 50.3011 141.703 49.6886 142.005 48.9073C142.306 48.1201 142.457 47.2116 142.457 46.1818C142.457 45.1638 142.309 44.2731 142.013 43.5096C141.717 42.7402 141.28 42.1424 140.699 41.7163C140.119 41.2842 139.403 41.0682 138.551 41.0682C137.663 41.0682 136.923 41.296 136.332 41.7518C135.746 42.2016 135.305 42.8142 135.009 43.5895C134.719 44.3589 134.574 45.223 134.574 46.1818C134.574 47.1525 134.722 48.0343 135.018 48.8274C135.32 49.6146 135.763 50.242 136.349 50.7095C136.941 51.1712 137.675 51.402 138.551 51.402Z" fill="black"/>
<g clip-path="url(#clip0_153_897)">
<path d="M384.692 34H414.308C415.242 34 416 34.7522 416 35.68V53.32C416 54.2479 415.242 55 414.308 55H384.692C383.758 55 383 54.2479 383 53.32V35.68C383 34.7522 383.758 34 384.692 34V34Z" fill="#2557D6"/>
<path d="M383.01 43.8988H384.595L384.952 43.0794H385.751L386.108 43.8988H389.224V43.2724L389.502 43.9015H391.12L391.399 43.263V43.8988H399.144L399.141 42.5537H399.291C399.395 42.5572 399.426 42.5664 399.426 42.7312V43.8988H403.432V43.5857C403.755 43.7504 404.258 43.8988 404.919 43.8988H406.605L406.965 43.0794H407.765L408.118 43.8988H411.365V43.1205L411.857 43.8988H414.46V38.7534H411.884V39.3611L411.524 38.7534H408.881V39.3611L408.549 38.7534H404.979C404.382 38.7534 403.857 38.8328 403.432 39.0538V38.7534H400.969V39.0538C400.699 38.826 400.331 38.7534 399.922 38.7534H390.921L390.317 40.0823L389.697 38.7534H386.862V39.3611L386.551 38.7534H384.133L383.01 41.1998V43.8987H383.01L383.01 43.8988ZM393.009 43.1567H392.059L392.056 40.2673L390.711 43.1566H389.897L388.549 40.2647V43.1566H386.664L386.308 42.3338H384.377L384.017 43.1566H383.01L384.671 39.4675H386.048L387.625 42.9603V39.4675H389.138L390.351 41.9701L391.466 39.4675H393.009L393.009 43.1567ZM385.991 41.5681L385.356 40.0974L384.725 41.5681H385.991ZM396.792 43.1566H393.695V39.4674H396.792V40.2356H394.622V40.9006H396.74V41.6568H394.622V42.3936H396.792L396.792 43.1566ZM401.156 40.461C401.156 41.0492 400.744 41.3531 400.503 41.4443C400.706 41.5177 400.879 41.6475 400.962 41.755C401.093 41.9385 401.115 42.1024 401.115 42.4319V43.1566H400.18L400.176 42.6913C400.176 42.4694 400.199 42.1501 400.03 41.9726C399.895 41.8429 399.688 41.8147 399.354 41.8147H398.359V43.1566H397.432V39.4674H399.564C400.038 39.4674 400.387 39.4793 400.687 39.6441C400.98 39.8089 401.156 40.0495 401.156 40.461V40.461ZM399.984 41.0088C399.857 41.0824 399.706 41.0848 399.526 41.0848H398.399V40.2654H399.541C399.703 40.2654 399.871 40.2723 399.981 40.3319C400.101 40.3857 400.175 40.5 400.175 40.658C400.175 40.8193 400.105 40.9491 399.984 41.0088V41.0088ZM402.643 43.1566H401.697V39.4674H402.643V43.1566ZM413.625 43.1566H412.311L410.553 40.3876V43.1566H408.665L408.305 42.3337H406.379L406.029 43.1566H404.944C404.493 43.1566 403.922 43.0618 403.599 42.7485C403.274 42.4353 403.104 42.011 403.104 41.3402C403.104 40.793 403.205 40.2928 403.604 39.8976C403.904 39.6032 404.373 39.4674 405.012 39.4674H405.909V40.2579H405.031C404.692 40.2579 404.501 40.3058 404.317 40.4764C404.159 40.6318 404.051 40.9254 404.051 41.3121C404.051 41.7073 404.133 41.9923 404.306 42.1785C404.448 42.3245 404.708 42.3687 404.952 42.3687H405.368L406.675 39.4675H408.064L409.634 42.9569V39.4676H411.045L412.675 42.0369V39.4676H413.625V43.1566ZM407.989 41.5681L407.348 40.0974L406.71 41.5681H407.989ZM415.987 49.0475C415.762 49.3607 415.323 49.5195 414.729 49.5195H412.939V48.7282H414.722C414.899 48.7282 415.022 48.7061 415.097 48.6369C415.167 48.575 415.207 48.4876 415.206 48.3962C415.206 48.2887 415.161 48.2033 415.093 48.1522C415.026 48.0958 414.928 48.0703 414.766 48.0703C413.896 48.0421 412.81 48.0958 412.81 46.9281C412.81 46.393 413.167 45.8296 414.14 45.8296H415.987V45.0955H414.271C413.753 45.0955 413.377 45.2135 413.111 45.3968V45.0954H410.573C410.167 45.0954 409.691 45.1911 409.465 45.3968V45.0954H404.933V45.3968C404.573 45.1493 403.964 45.0954 403.683 45.0954H400.694V45.3968C400.408 45.1339 399.774 45.0954 399.387 45.0954H396.042L395.276 45.8835L394.559 45.0954H389.561V50.2442H394.465L395.253 49.4436L395.997 50.2442L399.019 50.2468V49.0356H399.316C399.717 49.0414 400.19 49.026 400.608 48.8545V50.244H403.101V48.902H403.221C403.374 48.902 403.389 48.9081 403.389 49.0539V50.2439H410.963C411.444 50.2439 411.946 50.1269 412.225 49.9144V50.2439H414.627C415.127 50.2439 415.615 50.1772 415.987 50.0066L415.987 49.0473L415.987 49.0475ZM400.97 47.067C400.97 48.092 400.166 48.3037 399.356 48.3037H398.199V49.5414H396.397L395.255 48.3198L394.069 49.5414H390.397V45.8513H394.126L395.266 47.0609L396.445 45.8513H399.408C400.144 45.8513 400.97 46.045 400.97 47.067V47.067ZM393.599 48.7652H391.32V48.0311H393.355V47.2782H391.32V46.6073H393.644L394.658 47.6826L393.599 48.7652ZM397.272 49.1877L395.849 47.6846L397.272 46.2293V49.1877ZM399.377 47.547H398.179V46.6073H399.388C399.723 46.6073 399.955 46.737 399.955 47.0597C399.955 47.3788 399.734 47.547 399.377 47.547V47.547ZM405.654 45.8513H408.748V46.6144H406.577V47.2853H408.695V48.0382H406.577V48.7724L408.748 48.7757V49.5414H405.654L405.654 45.8513ZM404.464 47.8265C404.671 47.899 404.839 48.0288 404.919 48.1363C405.049 48.3165 405.068 48.4846 405.072 48.8098V49.5414H404.141V49.0797C404.141 48.8577 404.164 48.529 403.991 48.3574C403.856 48.2252 403.649 48.1936 403.311 48.1936H402.32V49.5414H401.389V45.8513H403.529C403.999 45.8513 404.341 45.8711 404.645 46.0255C404.937 46.1936 405.121 46.4239 405.121 46.8449C405.121 47.4339 404.708 47.7344 404.464 47.8265V47.8265ZM403.94 47.36C403.816 47.43 403.663 47.4361 403.483 47.4361H402.356V46.6073H403.498C403.663 46.6073 403.828 46.6107 403.94 46.674C404.061 46.7338 404.132 46.8481 404.132 47.0059C404.132 47.1638 404.061 47.2909 403.94 47.36V47.36ZM412.31 47.5951C412.49 47.7727 412.587 47.9971 412.587 48.3768C412.587 49.1706 412.066 49.5412 411.131 49.5412H409.325V48.7499H411.123C411.299 48.7499 411.424 48.7279 411.502 48.6586C411.566 48.6015 411.612 48.5186 411.612 48.418C411.612 48.3104 411.562 48.2251 411.498 48.1739C411.428 48.1176 411.33 48.092 411.168 48.092C410.301 48.0639 409.215 48.1176 409.215 46.95C409.215 46.4147 409.569 45.8513 410.541 45.8513H412.4V46.6367H410.699C410.53 46.6367 410.421 46.6428 410.328 46.7034C410.226 46.7631 410.188 46.8518 410.188 46.9688C410.188 47.108 410.275 47.2027 410.391 47.2437C410.489 47.2761 410.594 47.2855 410.752 47.2855L411.251 47.2984C411.754 47.31 412.1 47.3928 412.31 47.5951V47.5951ZM415.989 46.6073H414.299C414.13 46.6073 414.018 46.6133 413.924 46.6739C413.826 46.7337 413.788 46.8223 413.788 46.9394C413.788 47.0786 413.871 47.1733 413.991 47.2143C414.089 47.2467 414.194 47.2561 414.348 47.2561L414.851 47.2689C415.358 47.2808 415.696 47.3637 415.903 47.5659C415.94 47.594 415.963 47.6256 415.989 47.6573V46.6073H415.989Z" fill="white"/>
</g>
<path d="M352.48 44.4999C352.48 50.2502 347.74 54.9109 341.894 54.9109C336.047 54.9109 331.308 50.2499 331.308 44.4999C331.308 38.7502 336.047 34.0889 341.894 34.0889C347.74 34.0889 352.48 38.7504 352.48 44.4999Z" fill="#D9222A"/>
<path d="M356.106 34.0889C353.371 34.0889 350.878 35.1094 348.999 36.784C348.617 37.1255 348.259 37.4937 347.93 37.8857H350.069C350.362 38.2359 350.632 38.6042 350.876 38.9884H347.124C346.898 39.3435 346.694 39.7116 346.514 40.0909H351.486C351.657 40.4496 351.806 40.8176 351.934 41.1931H346.065C345.942 41.5547 345.839 41.9228 345.758 42.2956H352.241C352.4 43.02 352.48 43.759 352.48 44.5C352.48 45.6563 352.288 46.7685 351.934 47.8073H346.065C346.193 48.1829 346.343 48.5511 346.513 48.9097H351.486C351.305 49.2891 351.101 49.6573 350.876 50.0125H347.123C347.368 50.3964 347.638 50.7645 347.93 51.1142H350.069C349.74 51.507 349.383 51.8756 349 52.217C350.878 53.8912 353.371 54.9113 356.106 54.9113C361.953 54.9113 366.692 50.2504 366.692 44.5003C366.692 38.7508 361.953 34.0893 356.106 34.0893" fill="#EE9F2D"/>
<path d="M365.281 50.3034C365.281 50.1178 365.434 49.9669 365.623 49.9669C365.812 49.9669 365.965 50.1178 365.965 50.3034C365.965 50.4889 365.812 50.6398 365.623 50.6398C365.434 50.6398 365.281 50.4889 365.281 50.3034ZM365.623 50.559C365.766 50.559 365.883 50.4446 365.883 50.3034C365.883 50.1623 365.767 50.0481 365.623 50.048H365.623C365.48 50.0478 365.363 50.1618 365.363 50.3026V50.3034C365.363 50.4446 365.479 50.559 365.623 50.5591C365.623 50.559 365.623 50.559 365.623 50.559V50.559ZM365.577 50.4512H365.507V50.1556H365.633C365.66 50.1556 365.687 50.1556 365.71 50.1703C365.735 50.1865 365.748 50.215 365.748 50.2445C365.748 50.2776 365.728 50.3085 365.696 50.3206L365.752 50.4511H365.674L365.628 50.3341H365.577L365.577 50.4512ZM365.577 50.2835H365.615C365.63 50.2835 365.645 50.2848 365.658 50.2777C365.67 50.2705 365.676 50.2569 365.676 50.2439C365.675 50.2318 365.669 50.2206 365.659 50.2138C365.647 50.2063 365.627 50.208 365.614 50.208H365.577V50.2835ZM339.422 45.6399C339.301 45.6261 339.248 45.6224 339.165 45.6224C338.514 45.6224 338.184 45.8421 338.184 46.276C338.184 46.5434 338.345 46.7136 338.596 46.7136C339.064 46.7136 339.401 46.2752 339.422 45.6399V45.6399ZM340.257 47.5537H339.305L339.327 47.1085C339.036 47.4602 338.649 47.6275 338.122 47.6275C337.499 47.6275 337.072 47.149 337.072 46.4542C337.072 45.4088 337.815 44.7988 339.09 44.7988C339.22 44.7988 339.388 44.8104 339.559 44.8319C339.594 44.6903 339.604 44.6296 339.604 44.5534C339.604 44.2688 339.403 44.1627 338.866 44.1627C338.304 44.1564 337.84 44.2944 337.65 44.356C337.662 44.2847 337.809 43.3898 337.809 43.3898C338.382 43.2247 338.76 43.1626 339.185 43.1626C340.172 43.1626 340.694 43.5984 340.693 44.4219C340.695 44.6426 340.658 44.9149 340.6 45.2728C340.501 45.8954 340.286 47.2286 340.257 47.5537V47.5537ZM336.592 47.5537H335.442L336.101 43.4938L334.631 47.5537H333.848L333.751 43.517L333.059 47.5537H331.983L332.882 42.2724H334.534L334.634 45.2286L335.642 42.2724H337.48L336.592 47.5537ZM357.526 45.6399C357.406 45.6261 357.352 45.6224 357.27 45.6224C356.618 45.6224 356.289 45.8421 356.289 46.276C356.289 46.5434 356.449 46.7136 356.7 46.7136C357.169 46.7136 357.506 46.2752 357.526 45.6399V45.6399ZM358.362 47.5537H357.41L357.432 47.1085C357.141 47.4602 356.753 47.6275 356.227 47.6275C355.604 47.6275 355.177 47.149 355.177 46.4542C355.177 45.4088 355.92 44.7988 357.195 44.7988C357.325 44.7988 357.492 44.8104 357.663 44.8319C357.699 44.6903 357.708 44.6296 357.708 44.5534C357.708 44.2688 357.508 44.1627 356.971 44.1627C356.409 44.1564 355.946 44.2944 355.754 44.356C355.766 44.2847 355.914 43.3898 355.914 43.3898C356.487 43.2247 356.864 43.1626 357.289 43.1626C358.276 43.1626 358.799 43.5984 358.798 44.4219C358.8 44.6426 358.763 44.9149 358.705 45.2728C358.606 45.8954 358.391 47.2286 358.362 47.5537V47.5537ZM345.365 47.4884C345.05 47.5858 344.805 47.6275 344.539 47.6275C343.952 47.6275 343.631 47.2954 343.631 46.684C343.623 46.4943 343.716 45.995 343.789 45.5393C343.855 45.1381 344.287 42.6086 344.287 42.6086H345.429L345.296 43.2586H345.986L345.83 44.2908H345.137C345.005 45.1076 344.816 46.1251 344.814 46.2599C344.814 46.4812 344.934 46.5779 345.207 46.5779C345.338 46.5779 345.439 46.5648 345.517 46.5373L345.365 47.4884ZM348.867 47.4536C348.475 47.5716 348.096 47.6286 347.695 47.6276C346.416 47.6264 345.75 46.9695 345.75 45.7118C345.75 44.2436 346.598 43.1628 347.749 43.1628C348.691 43.1628 349.292 43.7679 349.292 44.717C349.292 45.0319 349.251 45.3393 349.151 45.7733H346.877C346.8 46.3963 347.205 46.6559 347.869 46.6559C348.278 46.6559 348.647 46.573 349.057 46.3854L348.867 47.4536ZM348.225 44.9074C348.232 44.8179 348.346 44.1408 347.694 44.1408C347.33 44.1408 347.07 44.4137 346.964 44.9074H348.225ZM340.947 44.6164C340.947 45.1597 341.215 45.5343 341.822 45.8156C342.287 46.0308 342.359 46.0946 342.359 46.2895C342.359 46.5573 342.154 46.6782 341.699 46.6782C341.357 46.6782 341.038 46.6255 340.67 46.5087C340.67 46.5087 340.519 47.4553 340.512 47.5006C340.773 47.5567 341.006 47.6085 341.708 47.6276C342.92 47.6276 343.48 47.1735 343.48 46.1921C343.48 45.602 343.246 45.2556 342.67 44.9953C342.188 44.7778 342.133 44.7293 342.133 44.5287C342.133 44.2965 342.324 44.1781 342.696 44.1781C342.921 44.1781 343.229 44.2017 343.521 44.2426L343.685 43.2464C343.387 43.2 342.936 43.1628 342.673 43.1628C341.388 43.1628 340.943 43.8233 340.947 44.6164V44.6164ZM354.457 43.2757C354.776 43.2757 355.074 43.3581 355.484 43.5611L355.672 42.4149C355.504 42.3498 354.911 41.9683 354.409 41.9683C353.64 41.9683 352.99 42.3436 352.532 42.963C351.865 42.7457 351.591 43.1848 351.255 43.6222L350.957 43.6906C350.979 43.5466 351 43.4035 350.993 43.2588H349.937C349.793 44.5879 349.538 45.9342 349.337 47.2651L349.285 47.5537H350.435C350.627 46.3274 350.732 45.5423 350.796 45.0109L351.229 44.774C351.294 44.5375 351.496 44.4574 351.902 44.4671C351.848 44.7576 351.82 45.0524 351.821 45.3478C351.821 46.7529 352.591 47.6277 353.829 47.6277C354.147 47.6277 354.421 47.5864 354.844 47.4735L355.047 46.2695C354.666 46.454 354.353 46.5407 354.07 46.5407C353.402 46.5407 352.998 46.0557 352.998 45.254C352.998 44.0911 353.599 43.2757 354.457 43.2757" fill="black"/>
<path d="M336.923 47.2399H335.773L336.432 43.1806L334.962 47.2399H334.178L334.082 43.2038L333.39 47.2399H332.314L333.213 41.9595H334.865L334.912 45.2285L336.026 41.9595H337.811L336.923 47.2399Z" fill="white"/>
<path d="M364.187 42.2729L363.932 43.7989C363.618 43.3921 363.281 43.0978 362.835 43.0978C362.255 43.0978 361.727 43.5302 361.382 44.1664C360.9 44.0683 360.403 43.9018 360.403 43.9018L360.403 43.9056C360.441 43.5499 360.457 43.3329 360.453 43.2592H359.398C359.254 44.5884 358.998 45.9346 358.799 47.2655L358.746 47.5541H359.896C360.051 46.5626 360.17 45.7393 360.257 45.0862C360.65 44.7373 360.847 44.4328 361.243 44.4531C361.068 44.8709 360.965 45.3522 360.965 45.846C360.965 46.9198 361.517 47.6281 362.353 47.6281C362.774 47.6281 363.097 47.4853 363.412 47.1542L363.358 47.5534H364.446L365.321 42.273L364.187 42.2729ZM362.75 46.5615C362.359 46.5615 362.161 46.2769 362.161 45.715C362.161 44.8708 362.531 44.2722 363.053 44.2722C363.447 44.2722 363.661 44.5682 363.661 45.1137C363.661 45.9651 363.285 46.5615 362.75 46.5615V46.5615Z" fill="black"/>
<path d="M339.752 45.3272C339.632 45.3135 339.578 45.3099 339.496 45.3099C338.844 45.3099 338.515 45.5295 338.515 45.9633C338.515 46.2304 338.676 46.401 338.926 46.401C339.395 46.401 339.732 45.9626 339.752 45.3272V45.3272ZM340.588 47.2403H339.636L339.658 46.7958C339.367 47.147 338.979 47.3149 338.453 47.3149C337.83 47.3149 337.403 46.8365 337.403 46.1417C337.403 45.0958 338.146 44.4862 339.421 44.4862C339.551 44.4862 339.719 44.4978 339.889 44.5194C339.925 44.3778 339.934 44.3171 339.934 44.2405C339.934 43.9558 339.734 43.8502 339.197 43.8502C338.635 43.8439 338.172 43.9819 337.981 44.0428C337.993 43.9718 338.14 43.0779 338.14 43.0779C338.713 42.9121 339.091 42.85 339.515 42.85C340.502 42.85 341.025 43.286 341.024 44.1088C341.026 44.3304 340.989 44.6026 340.931 44.96C340.831 45.582 340.617 46.916 340.588 47.2403V47.2403ZM356.003 42.102L355.815 43.2485C355.405 43.0457 355.107 42.9631 354.788 42.9631C353.93 42.9631 353.329 43.7785 353.329 44.9412C353.329 45.7429 353.733 46.2277 354.401 46.2277C354.684 46.2277 354.996 46.1412 355.377 45.9566L355.175 47.1601C354.752 47.2736 354.479 47.3149 354.16 47.3149C352.923 47.3149 352.152 46.4401 352.152 45.035C352.152 43.1471 353.217 41.8276 354.74 41.8276C355.241 41.8277 355.834 42.037 356.003 42.102V42.102ZM357.857 45.3272C357.737 45.3135 357.684 45.3099 357.601 45.3099C356.95 45.3099 356.62 45.5295 356.62 45.9633C356.62 46.2304 356.781 46.401 357.032 46.401C357.5 46.401 357.838 45.9626 357.857 45.3272V45.3272ZM358.693 47.2403H357.741L357.763 46.7958C357.472 47.147 357.085 47.3149 356.559 47.3149C355.936 47.3149 355.509 46.8365 355.509 46.1417C355.509 45.0958 356.251 44.4862 357.526 44.4862C357.657 44.4862 357.824 44.4978 357.995 44.5194C358.03 44.3778 358.04 44.3171 358.04 44.2405C358.04 43.9558 357.839 43.8502 357.303 43.8502C356.74 43.8439 356.277 43.9819 356.086 44.0428C356.098 43.9718 356.245 43.0779 356.245 43.0779C356.818 42.9121 357.196 42.85 357.62 42.85C358.608 42.85 359.13 43.286 359.129 44.1088C359.131 44.3304 359.094 44.6026 359.036 44.96C358.937 45.582 358.722 46.916 358.693 47.2403ZM345.696 47.1753C345.381 47.2727 345.136 47.3149 344.87 47.3149C344.283 47.3149 343.962 46.9828 343.962 46.3714C343.954 46.1812 344.047 45.6824 344.12 45.2267C344.186 44.825 344.618 42.2958 344.618 42.2958H345.76L345.627 42.946H346.213L346.057 43.9778H345.469C345.336 44.7951 345.147 45.8117 345.145 45.9468C345.145 46.169 345.265 46.2648 345.538 46.2648C345.669 46.2648 345.77 46.2523 345.848 46.2247L345.696 47.1753ZM349.199 47.1409C348.806 47.2589 348.427 47.3156 348.026 47.3149C346.747 47.3137 346.081 46.6569 346.081 45.399C346.081 43.9304 346.929 42.8499 348.08 42.8499C349.022 42.8499 349.623 43.4548 349.623 44.4043C349.623 44.7195 349.582 45.0269 349.483 45.4606H347.208C347.131 46.0836 347.536 46.3435 348.201 46.3435C348.61 46.3435 348.979 46.2603 349.389 46.0722L349.199 47.1409ZM348.556 44.5941C348.563 44.5049 348.678 43.8275 348.025 43.8275C347.661 43.8275 347.401 44.1011 347.295 44.5941H348.556ZM341.278 44.3038C341.278 44.8471 341.546 45.2212 342.153 45.5029C342.618 45.718 342.69 45.782 342.69 45.9769C342.69 46.2446 342.485 46.3654 342.031 46.3654C341.688 46.3654 341.369 46.3128 341 46.196C341 46.196 340.85 47.1426 340.843 47.1879C341.104 47.244 341.337 47.2952 342.039 47.3149C343.252 47.3149 343.811 46.8609 343.811 45.8797C343.811 45.2892 343.577 44.943 343.001 44.6827C342.52 44.4647 342.464 44.4169 342.464 44.2161C342.464 43.9841 342.655 43.8647 343.027 43.8647C343.252 43.8647 343.56 43.8891 343.852 43.9299L344.016 42.9335C343.718 42.8871 343.267 42.8499 343.005 42.8499C341.719 42.8499 341.274 43.5099 341.278 44.3038V44.3038ZM364.776 47.2403H363.689L363.743 46.8405C363.427 47.1721 363.104 47.3149 362.683 47.3149C361.848 47.3149 361.296 46.6066 361.296 45.5328C361.296 44.1043 362.152 42.9001 363.165 42.9001C363.611 42.9001 363.949 43.0792 364.263 43.4857L364.518 41.9598H365.651L364.776 47.2403ZM363.081 46.248C363.616 46.248 363.992 45.6516 363.992 44.8007C363.992 44.2552 363.778 43.9592 363.383 43.9592C362.862 43.9592 362.492 44.5575 362.492 45.4019C362.492 45.9637 362.69 46.248 363.081 46.248ZM359.729 42.9461C359.585 44.2753 359.329 45.6216 359.129 46.9518L359.077 47.2404H360.226C360.637 44.6144 360.737 44.1016 361.381 44.1658C361.484 43.6284 361.675 43.1576 361.818 42.9201C361.336 42.8215 361.067 43.089 360.716 43.5972C360.743 43.3775 360.794 43.1641 360.784 42.9462L359.729 42.9461ZM350.268 42.9461C350.124 44.2753 349.868 45.6216 349.668 46.9518L349.616 47.2404H350.766C351.177 44.6144 351.276 44.1016 351.92 44.1658C352.023 43.6284 352.214 43.1576 352.356 42.9201C351.876 42.8215 351.606 43.089 351.255 43.5972C351.283 43.3775 351.333 43.1641 351.323 42.9462L350.268 42.9461ZM365.281 46.9041C365.281 46.7185 365.433 46.568 365.622 46.5677H365.623C365.811 46.5675 365.964 46.7177 365.965 46.9031V46.9041C365.965 47.0897 365.812 47.2402 365.623 47.2403C365.434 47.2402 365.281 47.0897 365.281 46.9041V46.9041ZM365.623 47.1596C365.766 47.1597 365.882 47.0454 365.882 46.9044V46.9042C365.883 46.7631 365.766 46.6486 365.623 46.6485H365.623C365.479 46.6486 365.363 46.763 365.363 46.9042C365.363 47.0452 365.479 47.1596 365.623 47.1596ZM365.577 47.051H365.506V46.7563H365.633C365.66 46.7563 365.687 46.7568 365.71 46.771C365.734 46.7874 365.748 46.8155 365.748 46.8449C365.748 46.8783 365.729 46.9094 365.696 46.9213L365.752 47.051H365.674L365.628 46.9345H365.576L365.577 47.051ZM365.577 46.8841H365.615C365.63 46.8841 365.645 46.8852 365.658 46.8783C365.67 46.871 365.676 46.8573 365.676 46.8442C365.675 46.832 365.669 46.8207 365.659 46.8138C365.647 46.807 365.627 46.809 365.614 46.809H365.576L365.577 46.8841Z" fill="white"/>
<path d="M443.558 49.1918C443.04 49.1918 442.569 49.0941 442.147 48.8988C441.724 48.6999 441.388 48.4141 441.14 48.0412C440.891 47.6648 440.767 47.2102 440.767 46.6776C440.767 46.2088 440.859 45.8288 441.044 45.5376C441.229 45.2429 441.475 45.0121 441.784 44.8452C442.093 44.6783 442.434 44.554 442.807 44.4723C443.184 44.3871 443.562 44.3196 443.942 44.2699C444.439 44.206 444.842 44.158 445.151 44.1261C445.463 44.0906 445.691 44.032 445.833 43.9503C445.978 43.8686 446.051 43.7266 446.051 43.5241V43.4815C446.051 42.956 445.907 42.5476 445.62 42.2564C445.336 41.9652 444.904 41.8196 444.325 41.8196C443.725 41.8196 443.255 41.951 442.914 42.2138C442.573 42.4766 442.333 42.7571 442.195 43.0554L441.001 42.6293C441.214 42.1321 441.499 41.745 441.854 41.468C442.212 41.1875 442.603 40.9922 443.026 40.8821C443.452 40.7685 443.871 40.7116 444.283 40.7116C444.545 40.7116 444.847 40.7436 445.188 40.8075C445.533 40.8679 445.865 40.994 446.184 41.1857C446.507 41.3775 446.776 41.6669 446.989 42.054C447.202 42.4411 447.308 42.9595 447.308 43.6094V49H446.051V47.892H445.987C445.902 48.0696 445.76 48.2596 445.561 48.462C445.362 48.6644 445.098 48.8366 444.767 48.9787C444.437 49.1207 444.034 49.1918 443.558 49.1918ZM443.75 48.0625C444.247 48.0625 444.666 47.9648 445.007 47.7695C445.352 47.5742 445.611 47.3221 445.785 47.0131C445.962 46.7042 446.051 46.3793 446.051 46.0384V44.8878C445.998 44.9517 445.881 45.0103 445.7 45.0636C445.522 45.1133 445.316 45.1577 445.082 45.1967C444.851 45.2322 444.625 45.2642 444.405 45.2926C444.189 45.3175 444.013 45.3388 443.878 45.3565C443.551 45.3991 443.246 45.4684 442.962 45.5643C442.681 45.6566 442.454 45.7969 442.28 45.9851C442.109 46.1697 442.024 46.4219 442.024 46.7415C442.024 47.1783 442.186 47.5085 442.509 47.7322C442.836 47.9524 443.249 48.0625 443.75 48.0625ZM450.86 44.0781V49H449.603V40.8182H450.817V42.0966H450.924C451.116 41.6811 451.407 41.3473 451.797 41.0952C452.188 40.8395 452.692 40.7116 453.31 40.7116C453.864 40.7116 454.349 40.8253 454.764 41.0526C455.18 41.2763 455.503 41.6172 455.734 42.0753C455.965 42.5298 456.08 43.1051 456.08 43.8011V49H454.823V43.8864C454.823 43.2436 454.656 42.7429 454.322 42.3842C453.988 42.022 453.53 41.8409 452.948 41.8409C452.547 41.8409 452.188 41.9279 451.872 42.1019C451.559 42.2759 451.313 42.5298 451.131 42.8636C450.95 43.1974 450.86 43.6023 450.86 44.0781ZM461.467 49.1705C460.785 49.1705 460.183 48.9982 459.661 48.6538C459.139 48.3058 458.73 47.8157 458.436 47.1836C458.141 46.5479 457.994 45.7969 457.994 44.9304C457.994 44.071 458.141 43.3253 458.436 42.6932C458.73 42.0611 459.141 41.5728 459.666 41.2283C460.192 40.8839 460.799 40.7116 461.488 40.7116C462.021 40.7116 462.441 40.8004 462.75 40.978C463.063 41.152 463.301 41.3509 463.464 41.5746C463.631 41.7947 463.761 41.9759 463.853 42.1179H463.96V38.0909H465.217V49H464.002V47.7429H463.853C463.761 47.892 463.629 48.0803 463.459 48.3075C463.288 48.5312 463.045 48.7319 462.729 48.9094C462.413 49.0835 461.992 49.1705 461.467 49.1705ZM461.637 48.0412C462.141 48.0412 462.567 47.9098 462.915 47.647C463.263 47.3807 463.528 47.0131 463.709 46.5444C463.89 46.0721 463.981 45.527 463.981 44.9091C463.981 44.2983 463.892 43.7638 463.714 43.3058C463.537 42.8441 463.274 42.4854 462.926 42.2298C462.578 41.9705 462.148 41.8409 461.637 41.8409C461.104 41.8409 460.661 41.9776 460.305 42.2511C459.954 42.521 459.689 42.8885 459.512 43.3537C459.338 43.8153 459.251 44.3338 459.251 44.9091C459.251 45.4915 459.339 46.0206 459.517 46.4964C459.698 46.9687 459.964 47.3452 460.316 47.6257C460.671 47.9027 461.112 48.0412 461.637 48.0412ZM471.912 49V40.8182H473.127V42.0966H473.233C473.404 41.6598 473.679 41.3207 474.059 41.0792C474.439 40.8342 474.895 40.7116 475.428 40.7116C475.968 40.7116 476.417 40.8342 476.776 41.0792C477.138 41.3207 477.42 41.6598 477.623 42.0966H477.708C477.917 41.674 478.232 41.3384 478.651 41.0898C479.07 40.8377 479.572 40.7116 480.158 40.7116C480.89 40.7116 481.488 40.9407 481.953 41.3988C482.418 41.8533 482.651 42.5618 482.651 43.5241V49H481.394V43.5241C481.394 42.9205 481.229 42.489 480.898 42.2298C480.568 41.9705 480.179 41.8409 479.732 41.8409C479.157 41.8409 478.711 42.0149 478.395 42.3629C478.079 42.7074 477.921 43.1442 477.921 43.6733V49H476.642V43.3963C476.642 42.9311 476.491 42.5565 476.19 42.2724C475.888 41.9847 475.499 41.8409 475.023 41.8409C474.696 41.8409 474.391 41.9279 474.107 42.1019C473.826 42.2759 473.599 42.5174 473.425 42.8263C473.255 43.1317 473.169 43.4851 473.169 43.8864V49H471.912ZM488.273 49.1705C487.535 49.1705 486.887 48.9947 486.329 48.6431C485.775 48.2915 485.342 47.7997 485.029 47.1676C484.72 46.5355 484.566 45.7969 484.566 44.9517C484.566 44.0994 484.72 43.3555 485.029 42.7198C485.342 42.0842 485.775 41.5906 486.329 41.239C486.887 40.8874 487.535 40.7116 488.273 40.7116C489.012 40.7116 489.658 40.8874 490.212 41.239C490.77 41.5906 491.203 42.0842 491.512 42.7198C491.824 43.3555 491.981 44.0994 491.981 44.9517C491.981 45.7969 491.824 46.5355 491.512 47.1676C491.203 47.7997 490.77 48.2915 490.212 48.6431C489.658 48.9947 489.012 49.1705 488.273 49.1705ZM488.273 48.0412C488.834 48.0412 489.296 47.8974 489.658 47.6097C490.02 47.3221 490.289 46.9439 490.463 46.4751C490.637 46.0064 490.724 45.4986 490.724 44.9517C490.724 44.4048 490.637 43.8952 490.463 43.4229C490.289 42.9506 490.02 42.5689 489.658 42.2777C489.296 41.9865 488.834 41.8409 488.273 41.8409C487.712 41.8409 487.251 41.9865 486.888 42.2777C486.526 42.5689 486.258 42.9506 486.084 43.4229C485.91 43.8952 485.823 44.4048 485.823 44.9517C485.823 45.4986 485.91 46.0064 486.084 46.4751C486.258 46.9439 486.526 47.3221 486.888 47.6097C487.251 47.8974 487.712 48.0412 488.273 48.0412ZM493.9 49V40.8182H495.114V42.054H495.199C495.348 41.6491 495.618 41.3207 496.009 41.0685C496.4 40.8164 496.84 40.6903 497.33 40.6903C497.422 40.6903 497.538 40.6921 497.676 40.6957C497.815 40.6992 497.919 40.7045 497.991 40.7116V41.9901C497.948 41.9794 497.85 41.9634 497.698 41.9421C497.548 41.9173 497.39 41.9048 497.223 41.9048C496.826 41.9048 496.471 41.9883 496.158 42.1552C495.849 42.3185 495.604 42.5458 495.423 42.837C495.245 43.1246 495.157 43.4531 495.157 43.8224V49H493.9ZM502.662 49.1705C501.874 49.1705 501.194 48.9964 500.622 48.6484C500.054 48.2969 499.615 47.8068 499.306 47.1783C499.001 46.5462 498.848 45.8111 498.848 44.973C498.848 44.1349 499.001 43.3963 499.306 42.7571C499.615 42.1143 500.045 41.6136 500.595 41.255C501.149 40.8928 501.796 40.7116 502.534 40.7116C502.96 40.7116 503.381 40.7827 503.797 40.9247C504.212 41.0668 504.59 41.2976 504.931 41.6172C505.272 41.9332 505.544 42.3523 505.746 42.8743C505.949 43.3963 506.05 44.0391 506.05 44.8026V45.3352H499.743V44.2486H504.771C504.771 43.7869 504.679 43.375 504.494 43.0128C504.313 42.6506 504.054 42.3647 503.717 42.1552C503.383 41.9457 502.989 41.8409 502.534 41.8409C502.033 41.8409 501.6 41.9652 501.234 42.2138C500.872 42.4588 500.593 42.7784 500.398 43.1726C500.203 43.5668 500.105 43.9893 500.105 44.4403V45.1648C500.105 45.7827 500.212 46.3065 500.425 46.7362C500.641 47.1623 500.941 47.4872 501.325 47.7109C501.709 47.9311 502.154 48.0412 502.662 48.0412C502.992 48.0412 503.291 47.995 503.557 47.9027C503.827 47.8068 504.059 47.6648 504.255 47.4766C504.45 47.2848 504.601 47.0469 504.707 46.7628L505.922 47.1037C505.794 47.5156 505.579 47.8778 505.277 48.1903C504.976 48.4993 504.603 48.7408 504.159 48.9148C503.715 49.0852 503.216 49.1705 502.662 49.1705ZM508.878 49.0852C508.616 49.0852 508.39 48.9911 508.202 48.8029C508.014 48.6147 507.919 48.3892 507.919 48.1264C507.919 47.8636 508.014 47.6381 508.202 47.4499C508.39 47.2617 508.616 47.1676 508.878 47.1676C509.141 47.1676 509.367 47.2617 509.555 47.4499C509.743 47.6381 509.837 47.8636 509.837 48.1264C509.837 48.3004 509.793 48.4602 509.704 48.6058C509.619 48.7514 509.503 48.8686 509.358 48.9574C509.216 49.0426 509.056 49.0852 508.878 49.0852ZM513.009 49.0852C512.746 49.0852 512.521 48.9911 512.333 48.8029C512.144 48.6147 512.05 48.3892 512.05 48.1264C512.05 47.8636 512.144 47.6381 512.333 47.4499C512.521 47.2617 512.746 47.1676 513.009 47.1676C513.272 47.1676 513.497 47.2617 513.686 47.4499C513.874 47.6381 513.968 47.8636 513.968 48.1264C513.968 48.3004 513.924 48.4602 513.835 48.6058C513.75 48.7514 513.634 48.8686 513.489 48.9574C513.347 49.0426 513.187 49.0852 513.009 49.0852ZM517.14 49.0852C516.877 49.0852 516.652 48.9911 516.464 48.8029C516.275 48.6147 516.181 48.3892 516.181 48.1264C516.181 47.8636 516.275 47.6381 516.464 47.4499C516.652 47.2617 516.877 47.1676 517.14 47.1676C517.403 47.1676 517.628 47.2617 517.816 47.4499C518.005 47.6381 518.099 47.8636 518.099 48.1264C518.099 48.3004 518.054 48.4602 517.966 48.6058C517.88 48.7514 517.765 48.8686 517.619 48.9574C517.477 49.0426 517.318 49.0852 517.14 49.0852Z" fill="#A8A8A8"/>
<path d="M285.043 50.6211L287.096 38.484H290.38L288.325 50.6211H285.043ZM300.188 38.7456C299.538 38.4997 298.519 38.2358 297.246 38.2358C294.001 38.2358 291.715 39.882 291.696 42.2413C291.678 43.9853 293.328 44.9583 294.573 45.5388C295.851 46.1338 296.281 46.5132 296.275 47.0443C296.267 47.8579 295.254 48.2294 294.31 48.2294C292.996 48.2294 292.298 48.0455 291.219 47.5925L290.796 47.3996L290.335 50.1166C291.102 50.4555 292.521 50.7489 293.993 50.7642C297.445 50.7642 299.686 49.1368 299.711 46.6173C299.723 45.2366 298.849 44.186 296.954 43.3197C295.806 42.7582 295.103 42.3835 295.111 41.815C295.111 41.3105 295.706 40.771 296.992 40.771C298.065 40.7542 298.843 40.9901 299.449 41.236L299.743 41.3761L300.188 38.7456ZM308.638 38.4838H306.101C305.315 38.4838 304.727 38.6999 304.382 39.4903L299.505 50.6131H302.953C302.953 50.6131 303.517 49.1176 303.644 48.7892C304.021 48.7892 307.371 48.7944 307.849 48.7944C307.948 49.2193 308.249 50.6131 308.249 50.6131H311.296L308.638 38.4834V38.4838ZM304.613 46.3212C304.884 45.6219 305.921 42.9283 305.921 42.9283C305.902 42.9606 306.19 42.2256 306.356 41.7699L306.578 42.8163C306.578 42.8163 307.207 45.7135 307.338 46.321H304.613V46.3212ZM282.256 38.4838L279.041 46.7608L278.698 45.0788C278.1 43.1398 276.235 41.039 274.151 39.9873L277.09 50.6017L280.565 50.5978L285.734 38.4837L282.256 38.4836" fill="#0E4595"/>
<path d="M276.041 38.4834H270.747L270.705 38.7359C274.824 39.7406 277.55 42.1684 278.681 45.086L277.53 39.5084C277.331 38.7399 276.755 38.5105 276.042 38.4837" fill="#F2AE14"/>
<defs>
<clipPath id="clip0_153_897">
<rect width="33" height="21" fill="white" transform="translate(383 34)"/>
</clipPath>
</defs>
</svg>
