<svg width="415" height="72" viewBox="0 0 415 72" fill="none" xmlns="http://www.w3.org/2000/svg">
<path d="M115.887 23.0945C115.745 21.6622 115.135 20.5495 114.058 19.7564C112.981 18.9633 111.519 18.5668 109.673 18.5668C108.418 18.5668 107.358 18.7443 106.494 19.0994C105.63 19.4427 104.967 19.9221 104.506 20.5376C104.056 21.1532 103.831 21.8516 103.831 22.6328C103.807 23.2839 103.943 23.852 104.239 24.3374C104.547 24.8227 104.967 25.2429 105.5 25.598C106.033 25.9413 106.648 26.2431 107.347 26.5036C108.045 26.7521 108.791 26.9652 109.584 27.1428L112.851 27.924C114.437 28.2791 115.893 28.7526 117.219 29.3445C118.545 29.9363 119.693 30.6643 120.663 31.5284C121.634 32.3925 122.386 33.4105 122.918 34.5824C123.463 35.7543 123.741 37.0978 123.753 38.6129C123.741 40.8383 123.173 42.7678 122.048 44.4013C120.936 46.023 119.326 47.2836 117.219 48.1832C115.124 49.071 112.596 49.5149 109.637 49.5149C106.701 49.5149 104.145 49.0651 101.967 48.1655C99.8004 47.2659 98.1077 45.9342 96.8885 44.1705C95.6811 42.3949 95.0478 40.1991 94.9886 37.5831H102.428C102.511 38.8023 102.86 39.8203 103.476 40.6371C104.103 41.442 104.938 42.0516 105.979 42.4659C107.033 42.8684 108.223 43.0696 109.548 43.0696C110.85 43.0696 111.981 42.8802 112.94 42.5014C113.91 42.1226 114.662 41.5959 115.195 40.9212C115.727 40.2464 115.994 39.4711 115.994 38.5952C115.994 37.7784 115.751 37.0919 115.266 36.5355C114.792 35.9792 114.094 35.5057 113.17 35.1151C112.259 34.7244 111.14 34.3693 109.815 34.0497L105.855 33.0554C102.789 32.3097 100.369 31.1437 98.593 29.5575C96.8175 27.9714 95.9356 25.8348 95.9474 23.1477C95.9356 20.946 96.5215 19.0225 97.7053 17.3771C98.9008 15.7318 100.54 14.4474 102.624 13.5241C104.707 12.6009 107.074 12.1392 109.726 12.1392C112.425 12.1392 114.78 12.6009 116.793 13.5241C118.817 14.4474 120.391 15.7318 121.516 17.3771C122.64 19.0225 123.22 20.9283 123.256 23.0945H115.887ZM146.271 37.3878V21.7273H153.835V49H146.573V44.0462H146.289C145.674 45.6442 144.65 46.9285 143.218 47.8991C141.797 48.8698 140.063 49.3551 138.015 49.3551C136.192 49.3551 134.588 48.9408 133.203 48.1122C131.818 47.2836 130.735 46.1058 129.954 44.5788C129.185 43.0518 128.794 41.223 128.782 39.0923V21.7273H136.346V37.7429C136.358 39.3527 136.79 40.6252 137.642 41.5604C138.494 42.4955 139.637 42.9631 141.069 42.9631C141.981 42.9631 142.833 42.7559 143.626 42.3416C144.419 41.9155 145.058 41.2881 145.544 40.4595C146.041 39.6309 146.283 38.607 146.271 37.3878ZM160.028 49V12.6364H167.592V26.3082H167.822C168.154 25.5743 168.633 24.8286 169.261 24.071C169.9 23.3016 170.728 22.6624 171.746 22.1534C172.776 21.6326 174.055 21.3722 175.582 21.3722C177.57 21.3722 179.405 21.893 181.086 22.9347C182.767 23.9645 184.11 25.5211 185.116 27.6044C186.123 29.6759 186.626 32.2741 186.626 35.3991C186.626 38.4413 186.134 41.0099 185.152 43.1051C184.181 45.1884 182.856 46.7687 181.175 47.8459C179.506 48.9112 177.635 49.4439 175.564 49.4439C174.096 49.4439 172.847 49.2012 171.817 48.7159C170.799 48.2306 169.965 47.621 169.314 46.8871C168.663 46.1413 168.166 45.3897 167.822 44.6321H167.485V49H160.028ZM167.432 35.3636C167.432 36.9853 167.657 38.3999 168.107 39.6072C168.556 40.8146 169.207 41.7557 170.06 42.4304C170.912 43.0933 171.948 43.4247 173.167 43.4247C174.398 43.4247 175.44 43.0874 176.292 42.4126C177.144 41.7261 177.789 40.7791 178.227 39.5717C178.677 38.3525 178.902 36.9498 178.902 35.3636C178.902 33.7893 178.683 32.4044 178.245 31.2088C177.807 30.0133 177.162 29.0781 176.31 28.4034C175.457 27.7287 174.41 27.3913 173.167 27.3913C171.936 27.3913 170.894 27.7169 170.042 28.3679C169.201 29.0189 168.556 29.9422 168.107 31.1378C167.657 32.3333 167.432 33.742 167.432 35.3636ZM191.815 12.6364H201.296L211.311 37.0682H211.737L221.751 12.6364H231.232V49H223.775V25.3317H223.473L214.063 48.8224H208.985L199.574 25.2429H199.272V49H191.815V12.6364ZM249.854 49.5327C247.048 49.5327 244.634 48.9645 242.609 47.8281C240.597 46.6799 239.046 45.0582 237.957 42.9631C236.868 40.8561 236.324 38.3643 236.324 35.4879C236.324 32.6825 236.868 30.2204 237.957 28.1016C239.046 25.9827 240.579 24.3314 242.556 23.1477C244.545 21.964 246.877 21.3722 249.552 21.3722C251.351 21.3722 253.026 21.6622 254.577 22.2422C256.139 22.8104 257.5 23.6686 258.661 24.8168C259.832 25.965 260.744 27.4091 261.395 29.1491C262.046 30.8774 262.371 32.9015 262.371 35.2216V37.299H239.342V32.6115H255.251C255.251 31.5225 255.015 30.5578 254.541 29.7173C254.068 28.8769 253.411 28.2199 252.57 27.7464C251.742 27.2611 250.777 27.0185 249.676 27.0185C248.528 27.0185 247.51 27.2848 246.622 27.8175C245.746 28.3383 245.06 29.0426 244.562 29.9304C244.065 30.8063 243.811 31.7829 243.799 32.8601V37.3168C243.799 38.6662 244.048 39.8321 244.545 40.8146C245.054 41.7971 245.77 42.5547 246.693 43.0874C247.616 43.62 248.711 43.8864 249.978 43.8864C250.818 43.8864 251.588 43.768 252.286 43.5312C252.985 43.2945 253.582 42.9394 254.08 42.4659C254.577 41.9924 254.955 41.4124 255.216 40.7259L262.212 41.1875C261.857 42.8684 261.129 44.3362 260.028 45.5909C258.939 46.8338 257.53 47.8045 255.802 48.5028C254.085 49.1894 252.103 49.5327 249.854 49.5327ZM267.308 49V21.7273H274.641V26.4858H274.925C275.422 24.7931 276.256 23.5147 277.428 22.6506C278.6 21.7746 279.95 21.3366 281.477 21.3366C281.855 21.3366 282.264 21.3603 282.702 21.4077C283.14 21.455 283.524 21.5201 283.856 21.603V28.3146C283.501 28.2081 283.009 28.1134 282.382 28.0305C281.755 27.9477 281.181 27.9062 280.66 27.9062C279.547 27.9062 278.553 28.1489 277.677 28.6342C276.813 29.1077 276.126 29.7706 275.617 30.6229C275.12 31.4751 274.871 32.4576 274.871 33.5703V49H267.308ZM298.784 59.7955C296.334 59.7955 294.233 59.4581 292.481 58.7834C290.741 58.1205 289.356 57.215 288.326 56.0668C287.296 54.9186 286.627 53.6283 286.319 52.196L293.315 51.255C293.528 51.7995 293.866 52.3085 294.327 52.782C294.789 53.2554 295.398 53.6342 296.156 53.9183C296.925 54.2143 297.861 54.3622 298.961 54.3622C300.607 54.3622 301.962 53.9598 303.028 53.1548C304.105 52.3617 304.643 51.0301 304.643 49.1598V44.1705H304.324C303.992 44.928 303.495 45.6442 302.832 46.3189C302.169 46.9936 301.317 47.544 300.275 47.9702C299.234 48.3963 297.991 48.6094 296.547 48.6094C294.499 48.6094 292.635 48.1359 290.954 47.1889C289.285 46.2301 287.953 44.7682 286.959 42.8033C285.976 40.8265 285.485 38.3288 285.485 35.3104C285.485 32.2209 285.988 29.6404 286.994 27.5689C288 25.4974 289.338 23.9467 291.007 22.9169C292.688 21.8871 294.528 21.3722 296.529 21.3722C298.056 21.3722 299.334 21.6326 300.364 22.1534C301.394 22.6624 302.223 23.3016 302.85 24.071C303.489 24.8286 303.98 25.5743 304.324 26.3082H304.608V21.7273H312.118V49.2663C312.118 51.5864 311.55 53.5277 310.414 55.0902C309.278 56.6527 307.703 57.8246 305.691 58.6058C303.69 59.3989 301.388 59.7955 298.784 59.7955ZM298.944 42.9276C300.163 42.9276 301.193 42.6257 302.033 42.022C302.885 41.4065 303.537 40.5305 303.986 39.3942C304.448 38.246 304.679 36.8729 304.679 35.2749C304.679 33.6768 304.454 32.2919 304.004 31.12C303.554 29.9363 302.903 29.0189 302.051 28.3679C301.199 27.7169 300.163 27.3913 298.944 27.3913C297.701 27.3913 296.653 27.7287 295.801 28.4034C294.949 29.0663 294.304 29.9896 293.866 31.1733C293.428 32.357 293.209 33.7242 293.209 35.2749C293.209 36.8492 293.428 38.2105 293.866 39.3587C294.315 40.495 294.961 41.3769 295.801 42.0043C296.653 42.6198 297.701 42.9276 298.944 42.9276ZM330.567 49.5327C327.761 49.5327 325.346 48.9645 323.322 47.8281C321.31 46.6799 319.759 45.0582 318.67 42.9631C317.581 40.8561 317.037 38.3643 317.037 35.4879C317.037 32.6825 317.581 30.2204 318.67 28.1016C319.759 25.9827 321.292 24.3314 323.269 23.1477C325.258 21.964 327.59 21.3722 330.265 21.3722C332.064 21.3722 333.739 21.6622 335.29 22.2422C336.852 22.8104 338.213 23.6686 339.373 24.8168C340.545 25.965 341.457 27.4091 342.108 29.1491C342.759 30.8774 343.084 32.9015 343.084 35.2216V37.299H320.055V32.6115H335.964C335.964 31.5225 335.728 30.5578 335.254 29.7173C334.781 28.8769 334.124 28.2199 333.283 27.7464C332.455 27.2611 331.49 27.0185 330.389 27.0185C329.241 27.0185 328.223 27.2848 327.335 27.8175C326.459 28.3383 325.773 29.0426 325.275 29.9304C324.778 30.8063 324.524 31.7829 324.512 32.8601V37.3168C324.512 38.6662 324.76 39.8321 325.258 40.8146C325.767 41.7971 326.483 42.5547 327.406 43.0874C328.329 43.62 329.424 43.8864 330.691 43.8864C331.531 43.8864 332.301 43.768 332.999 43.5312C333.698 43.2945 334.295 42.9394 334.792 42.4659C335.29 41.9924 335.668 41.4124 335.929 40.7259L342.925 41.1875C342.569 42.8684 341.841 44.3362 340.741 45.5909C339.652 46.8338 338.243 47.8045 336.515 48.5028C334.798 49.1894 332.816 49.5327 330.567 49.5327Z" fill="white"/>
<path d="M4 18.4437C9.26087 24.0604 22.767 32.0951 34.7043 19.3005C49.6261 3.30711 64.9783 16.7301 68.5652 21.728" stroke="#0066FF" stroke-width="7" stroke-linecap="round"/>
<path d="M4 32.6758C9.26087 38.1113 22.767 45.8869 34.7043 33.505C49.6261 18.0275 64.9783 31.0175 68.5652 35.8542" stroke="#0066FF" stroke-width="7" stroke-linecap="round"/>
<path d="M4 46.8771C9.26087 52.4939 22.767 60.5286 34.7043 47.7339C49.6261 31.7406 64.9783 45.1636 68.5652 50.1615" stroke="#0066FF" stroke-width="7" stroke-linecap="round"/>
</svg>
