<svg width="415" height="72" viewBox="0 0 415 72" fill="none" xmlns="http://www.w3.org/2000/svg">
<path d="M115.887 23.5969C115.745 22.1646 115.135 21.0519 114.058 20.2588C112.981 19.4657 111.519 19.0692 109.673 19.0692C108.418 19.0692 107.358 19.2468 106.494 19.6019C105.63 19.9451 104.967 20.4246 104.506 21.0401C104.056 21.6556 103.831 22.354 103.831 23.1353C103.807 23.7863 103.943 24.3545 104.239 24.8398C104.547 25.3251 104.967 25.7453 105.5 26.1005C106.033 26.4437 106.648 26.7456 107.347 27.006C108.045 27.2546 108.791 27.4676 109.584 27.6452L112.851 28.4264C114.437 28.7816 115.893 29.255 117.219 29.8469C118.545 30.4388 119.693 31.1667 120.663 32.0308C121.634 32.895 122.386 33.913 122.918 35.0848C123.463 36.2567 123.741 37.6002 123.753 39.1154C123.741 41.3407 123.173 43.2702 122.048 44.9037C120.936 46.5254 119.326 47.7861 117.219 48.6857C115.124 49.5735 112.596 50.0174 109.637 50.0174C106.701 50.0174 104.145 49.5675 101.967 48.6679C99.8004 47.7683 98.1077 46.4366 96.8885 44.6729C95.6811 42.8973 95.0478 40.7015 94.9886 38.0855H102.428C102.511 39.3048 102.86 40.3228 103.476 41.1395C104.103 41.9444 104.938 42.5541 105.979 42.9684C107.033 43.3708 108.223 43.572 109.548 43.572C110.85 43.572 111.981 43.3826 112.94 43.0039C113.91 42.6251 114.662 42.0983 115.195 41.4236C115.727 40.7489 115.994 39.9736 115.994 39.0976C115.994 38.2809 115.751 37.5943 115.266 37.038C114.792 36.4816 114.094 36.0081 113.17 35.6175C112.259 35.2269 111.14 34.8718 109.815 34.5522L105.855 33.5578C102.789 32.8121 100.369 31.6461 98.593 30.06C96.8175 28.4738 95.9356 26.3372 95.9474 23.6502C95.9356 21.4485 96.5215 19.5249 97.7053 17.8796C98.9008 16.2342 100.54 14.9499 102.624 14.0266C104.707 13.1033 107.074 12.6416 109.726 12.6416C112.425 12.6416 114.78 13.1033 116.793 14.0266C118.817 14.9499 120.391 16.2342 121.516 17.8796C122.64 19.5249 123.22 21.4307 123.256 23.5969H115.887ZM146.271 37.8902V22.2297H153.835V49.5024H146.573V44.5486H146.289C145.674 46.1466 144.65 47.4309 143.218 48.4016C141.797 49.3722 140.063 49.8576 138.015 49.8576C136.192 49.8576 134.588 49.4433 133.203 48.6147C131.818 47.7861 130.735 46.6083 129.954 45.0813C129.185 43.5543 128.794 41.7255 128.782 39.5948V22.2297H136.346V38.2453C136.358 39.8552 136.79 41.1277 137.642 42.0628C138.494 42.9979 139.637 43.4655 141.069 43.4655C141.981 43.4655 142.833 43.2584 143.626 42.8441C144.419 42.4179 145.058 41.7906 145.544 40.962C146.041 40.1334 146.283 39.1094 146.271 37.8902ZM160.028 49.5024V13.1388H167.592V26.8107H167.822C168.154 26.0768 168.633 25.331 169.261 24.5735C169.9 23.8041 170.728 23.1648 171.746 22.6559C172.776 22.135 174.055 21.8746 175.582 21.8746C177.57 21.8746 179.405 22.3954 181.086 23.4371C182.767 24.4669 184.11 26.0235 185.116 28.1068C186.123 30.1783 186.626 32.7766 186.626 35.9016C186.626 38.9437 186.134 41.5124 185.152 43.6076C184.181 45.6909 182.856 47.2711 181.175 48.3483C179.506 49.4137 177.635 49.9463 175.564 49.9463C174.096 49.9463 172.847 49.7037 171.817 49.2184C170.799 48.733 169.965 48.1234 169.314 47.3895C168.663 46.6438 168.166 45.8921 167.822 45.1345H167.485V49.5024H160.028ZM167.432 35.8661C167.432 37.4878 167.657 38.9023 168.107 40.1097C168.556 41.3171 169.207 42.2581 170.06 42.9328C170.912 43.5957 171.948 43.9272 173.167 43.9272C174.398 43.9272 175.44 43.5898 176.292 42.9151C177.144 42.2285 177.789 41.2816 178.227 40.0742C178.677 38.855 178.902 37.4523 178.902 35.8661C178.902 34.2917 178.683 32.9068 178.245 31.7112C177.807 30.5157 177.162 29.5806 176.31 28.9058C175.457 28.2311 174.41 27.8938 173.167 27.8938C171.936 27.8938 170.894 28.2193 170.042 28.8703C169.201 29.5214 168.556 30.4447 168.107 31.6402C167.657 32.8358 167.432 34.2444 167.432 35.8661ZM191.815 13.1388H201.296L211.311 37.5706H211.737L221.751 13.1388H231.232V49.5024H223.775V25.8341H223.473L214.063 49.3249H208.985L199.574 25.7453H199.272V49.5024H191.815V13.1388ZM249.854 50.0351C247.048 50.0351 244.634 49.4669 242.609 48.3306C240.597 47.1824 239.046 45.5607 237.957 43.4655C236.868 41.3585 236.324 38.8668 236.324 35.9904C236.324 33.185 236.868 30.7228 237.957 28.604C239.046 26.4852 240.579 24.8339 242.556 23.6502C244.545 22.4665 246.877 21.8746 249.552 21.8746C251.351 21.8746 253.026 22.1646 254.577 22.7446C256.139 23.3128 257.5 24.171 258.661 25.3192C259.832 26.4674 260.744 27.9115 261.395 29.6516C262.046 31.3798 262.371 33.404 262.371 35.724V37.8014H239.342V33.1139H255.251C255.251 32.0249 255.015 31.0602 254.541 30.2198C254.068 29.3793 253.411 28.7224 252.57 28.2489C251.742 27.7636 250.777 27.5209 249.676 27.5209C248.528 27.5209 247.51 27.7872 246.622 28.3199C245.746 28.8407 245.06 29.5451 244.562 30.4328C244.065 31.3088 243.811 32.2853 243.799 33.3625V37.8192C243.799 39.1686 244.048 40.3346 244.545 41.3171C245.054 42.2996 245.77 43.0571 246.693 43.5898C247.616 44.1225 248.711 44.3888 249.978 44.3888C250.818 44.3888 251.588 44.2704 252.286 44.0337C252.985 43.7969 253.582 43.4418 254.08 42.9684C254.577 42.4949 254.955 41.9148 255.216 41.2283L262.212 41.6899C261.857 43.3708 261.129 44.8386 260.028 46.0934C258.939 47.3362 257.53 48.3069 255.802 49.0053C254.085 49.6918 252.103 50.0351 249.854 50.0351ZM267.308 49.5024V22.2297H274.641V26.9882H274.925C275.422 25.2955 276.256 24.0171 277.428 23.153C278.6 22.2771 279.95 21.8391 281.477 21.8391C281.855 21.8391 282.264 21.8628 282.702 21.9101C283.14 21.9575 283.524 22.0226 283.856 22.1054V28.8171C283.501 28.7105 283.009 28.6158 282.382 28.533C281.755 28.4501 281.181 28.4087 280.66 28.4087C279.547 28.4087 278.553 28.6514 277.677 29.1367C276.813 29.6102 276.126 30.273 275.617 31.1253C275.12 31.9776 274.871 32.9601 274.871 34.0728V49.5024H267.308ZM298.784 60.2979C296.334 60.2979 294.233 59.9605 292.481 59.2858C290.741 58.6229 289.356 57.7174 288.326 56.5692C287.296 55.421 286.627 54.1308 286.319 52.6985L293.315 51.7574C293.528 52.3019 293.866 52.8109 294.327 53.2844C294.789 53.7579 295.398 54.1367 296.156 54.4208C296.925 54.7167 297.861 54.8647 298.961 54.8647C300.607 54.8647 301.962 54.4622 303.028 53.6573C304.105 52.8642 304.643 51.5325 304.643 49.6622V44.6729H304.324C303.992 45.4305 303.495 46.1466 302.832 46.8213C302.169 47.496 301.317 48.0465 300.275 48.4726C299.234 48.8987 297.991 49.1118 296.547 49.1118C294.499 49.1118 292.635 48.6383 290.954 47.6914C289.285 46.7326 287.953 45.2707 286.959 43.3057C285.976 41.3289 285.485 38.8313 285.485 35.8128C285.485 32.7233 285.988 30.1428 286.994 28.0713C288 25.9998 289.338 24.4492 291.007 23.4193C292.688 22.3895 294.528 21.8746 296.529 21.8746C298.056 21.8746 299.334 22.135 300.364 22.6559C301.394 23.1648 302.223 23.8041 302.85 24.5735C303.489 25.331 303.98 26.0768 304.324 26.8107H304.608V22.2297H312.118V49.7688C312.118 52.0889 311.55 54.0301 310.414 55.5926C309.278 57.1551 307.703 58.327 305.691 59.1083C303.69 59.9014 301.388 60.2979 298.784 60.2979ZM298.944 43.43C300.163 43.43 301.193 43.1282 302.033 42.5245C302.885 41.9089 303.537 41.033 303.986 39.8966C304.448 38.7484 304.679 37.3753 304.679 35.7773C304.679 34.1793 304.454 32.7943 304.004 31.6225C303.554 30.4388 302.903 29.5214 302.051 28.8703C301.199 28.2193 300.163 27.8938 298.944 27.8938C297.701 27.8938 296.653 28.2311 295.801 28.9058C294.949 29.5687 294.304 30.492 293.866 31.6757C293.428 32.8594 293.209 34.2266 293.209 35.7773C293.209 37.3516 293.428 38.7129 293.866 39.8611C294.315 40.9975 294.961 41.8793 295.801 42.5067C296.653 43.1222 297.701 43.43 298.944 43.43ZM330.567 50.0351C327.761 50.0351 325.346 49.4669 323.322 48.3306C321.31 47.1824 319.759 45.5607 318.67 43.4655C317.581 41.3585 317.037 38.8668 317.037 35.9904C317.037 33.185 317.581 30.7228 318.67 28.604C319.759 26.4852 321.292 24.8339 323.269 23.6502C325.258 22.4665 327.59 21.8746 330.265 21.8746C332.064 21.8746 333.739 22.1646 335.29 22.7446C336.852 23.3128 338.213 24.171 339.373 25.3192C340.545 26.4674 341.457 27.9115 342.108 29.6516C342.759 31.3798 343.084 33.404 343.084 35.724V37.8014H320.055V33.1139H335.964C335.964 32.0249 335.728 31.0602 335.254 30.2198C334.781 29.3793 334.124 28.7224 333.283 28.2489C332.455 27.7636 331.49 27.5209 330.389 27.5209C329.241 27.5209 328.223 27.7872 327.335 28.3199C326.459 28.8407 325.773 29.5451 325.275 30.4328C324.778 31.3088 324.524 32.2853 324.512 33.3625V37.8192C324.512 39.1686 324.76 40.3346 325.258 41.3171C325.767 42.2996 326.483 43.0571 327.406 43.5898C328.329 44.1225 329.424 44.3888 330.691 44.3888C331.531 44.3888 332.301 44.2704 332.999 44.0337C333.698 43.7969 334.295 43.4418 334.792 42.9684C335.29 42.4949 335.668 41.9148 335.929 41.2283L342.925 41.6899C342.569 43.3708 341.841 44.8386 340.741 46.0934C339.652 47.3362 338.243 48.3069 336.515 49.0053C334.798 49.6918 332.816 50.0351 330.567 50.0351Z" fill="black"/>
<path d="M4 18.946C9.26087 24.5627 22.767 32.5975 34.7043 19.8028C49.6261 3.80943 64.9783 17.2324 68.5652 22.2303" stroke="#0066FF" stroke-width="7" stroke-linecap="round"/>
<path d="M4 33.178C9.26087 38.6135 22.767 46.3891 34.7043 34.0072C49.6261 18.5297 64.9783 31.5197 68.5652 36.3564" stroke="#0066FF" stroke-width="7" stroke-linecap="round"/>
<path d="M4 47.3796C9.26087 52.9963 22.767 61.031 34.7043 48.2364C49.6261 32.243 64.9783 45.666 68.5652 50.6639" stroke="#0066FF" stroke-width="7" stroke-linecap="round"/>
</svg>
