<svg width="86" height="91" viewBox="0 0 86 91" fill="none" xmlns="http://www.w3.org/2000/svg">
<g clip-path="url(#clip0_327_2339)">
<path d="M71.6665 77.301H14.3332C10.3915 77.301 7.1665 73.9377 7.1665 69.8269V30.7748C7.1665 28.3458 8.2415 26.1035 10.2123 24.6087L42.9998 0.69165L75.7873 24.6087C77.7582 25.9167 78.8332 28.3458 78.8332 30.7748V69.8269C78.8332 73.9377 75.6082 77.301 71.6665 77.301Z" fill="#78909C"/>
<path d="M25.0835 2.56018H60.9168V60.4843H25.0835V2.56018Z" fill="#AED581"/>
<path d="M23.2915 0.69165V62.3528H62.7082V0.69165H23.2915ZM59.1248 58.6158H26.8748V4.42869H59.1248V58.6158Z" fill="#558B2F"/>
<path d="M60.9163 6.29722C60.9163 9.47371 60.3788 11.9028 57.333 11.9028C54.2872 11.9028 51.958 9.47371 51.958 6.29722C51.958 3.12074 54.2872 2.56018 57.333 2.56018C60.3788 2.56018 60.9163 3.12074 60.9163 6.29722ZM28.6663 2.56018C31.7122 2.56018 34.0413 3.12074 34.0413 6.29722C34.0413 9.47371 31.7122 11.9028 28.6663 11.9028C25.6205 11.9028 25.083 9.47371 25.083 6.29722C25.083 3.12074 25.6205 2.56018 28.6663 2.56018Z" fill="#558B2F"/>
<path d="M42.9998 19.3769C44.9789 19.3769 46.5832 17.7038 46.5832 15.6399C46.5832 13.576 44.9789 11.9028 42.9998 11.9028C41.0208 11.9028 39.4165 13.576 39.4165 15.6399C39.4165 17.7038 41.0208 19.3769 42.9998 19.3769Z" fill="#558B2F"/>
<path d="M43 49.2732C48.9371 49.2732 53.75 44.2538 53.75 38.0621C53.75 31.8703 48.9371 26.851 43 26.851C37.0629 26.851 32.25 31.8703 32.25 38.0621C32.25 44.2538 37.0629 49.2732 43 49.2732Z" fill="#558B2F"/>
<path d="M71.6665 77.3011H14.3332C10.3915 77.3011 7.1665 73.9377 7.1665 69.827V32.4565L42.9998 56.7473L78.8332 32.4565V69.827C78.8332 73.9377 75.6082 77.3011 71.6665 77.3011Z" fill="#CFD8DC"/>
</g>
<defs>
<clipPath id="clip0_327_2339">
<rect width="86" height="89.689" fill="white" transform="translate(0 0.69165)"/>
</clipPath>
</defs>
</svg>
