<svg width="437" height="446" viewBox="0 0 437 446" fill="none" xmlns="http://www.w3.org/2000/svg">
<g filter="url(#filter0_d_333_3449)">
<path fill-rule="evenodd" clip-rule="evenodd" d="M108.91 392.499C137.231 407.503 169.527 416 203.808 416C315.922 416 406.808 325.114 406.808 213C406.808 100.886 315.922 10 203.808 10C128.9 10 63.4692 50.5722 28.2905 110.94L68.7063 144.098C93.8591 94.9483 145.005 61.3056 204.009 61.3056C287.9 61.3056 355.906 129.312 355.906 213.202C355.906 297.092 287.9 365.099 204.009 365.099C181.982 365.099 161.05 360.41 142.156 351.976L108.91 392.499Z" fill="#0FB600"/>
</g>
<path fill-rule="evenodd" clip-rule="evenodd" d="M27.3738 111.803C9.96798 141.746 0 176.547 0 213.676C0 292.047 44.4113 360.045 109.44 393.877L142.829 353.303C88.9758 329.952 51.3051 276.314 51.3051 213.878C51.3051 189.098 57.2388 165.704 67.7628 145.039L27.3738 111.803Z" fill="#C4C4C4"/>
<path d="M152.876 208.33V201.064L171.094 172.364H177.358V182.42H173.651L162.166 200.595V200.936H188.054V208.33H152.876ZM173.821 216V206.114L173.991 202.896V172.364H182.642V216H173.821ZM213.292 170.318L199.229 222.562H191.41L205.472 170.318H213.292ZM234.327 216.597C232.083 216.582 229.917 216.206 227.828 215.467C225.755 214.729 223.894 213.528 222.246 211.866C220.598 210.205 219.292 208.003 218.326 205.261C217.374 202.52 216.898 199.153 216.898 195.162C216.912 191.497 217.331 188.223 218.155 185.339C218.993 182.442 220.186 179.984 221.735 177.967C223.297 175.95 225.165 174.416 227.338 173.365C229.512 172.3 231.948 171.767 234.647 171.767C237.559 171.767 240.13 172.335 242.36 173.472C244.59 174.594 246.38 176.121 247.729 178.053C249.093 179.984 249.917 182.151 250.201 184.551H241.103C240.748 183.031 240.002 181.838 238.865 180.972C237.729 180.105 236.323 179.672 234.647 179.672C231.806 179.672 229.647 180.908 228.169 183.379C226.706 185.851 225.961 189.21 225.932 193.457H226.23C226.884 192.165 227.765 191.064 228.873 190.155C229.995 189.232 231.266 188.528 232.686 188.045C234.121 187.548 235.634 187.3 237.225 187.3C239.81 187.3 242.111 187.911 244.128 189.132C246.145 190.339 247.736 192.001 248.901 194.118C250.066 196.234 250.648 198.656 250.648 201.384C250.648 204.338 249.959 206.966 248.581 209.267C247.218 211.568 245.307 213.372 242.85 214.679C240.407 215.972 237.566 216.611 234.327 216.597ZM234.284 209.352C235.705 209.352 236.976 209.011 238.098 208.33C239.221 207.648 240.101 206.724 240.74 205.56C241.38 204.395 241.699 203.088 241.699 201.639C241.699 200.19 241.38 198.891 240.74 197.74C240.115 196.589 239.249 195.673 238.141 194.991C237.033 194.31 235.769 193.969 234.348 193.969C233.283 193.969 232.296 194.168 231.387 194.565C230.492 194.963 229.703 195.517 229.022 196.227C228.354 196.937 227.828 197.761 227.445 198.699C227.061 199.622 226.87 200.609 226.87 201.661C226.87 203.067 227.189 204.352 227.828 205.517C228.482 206.682 229.363 207.612 230.471 208.308C231.593 209.004 232.864 209.352 234.284 209.352Z" fill="#0066FF"/>
<path d="M122.009 255.18C121.91 254.249 121.491 253.525 120.752 253.006C120.021 252.488 119.069 252.229 117.897 252.229C117.073 252.229 116.366 252.353 115.777 252.602C115.188 252.85 114.737 253.187 114.424 253.614C114.112 254.04 113.952 254.526 113.945 255.073C113.945 255.528 114.048 255.922 114.254 256.256C114.467 256.589 114.754 256.874 115.116 257.108C115.479 257.335 115.88 257.527 116.32 257.683C116.761 257.839 117.205 257.971 117.652 258.077L119.697 258.589C120.521 258.781 121.313 259.04 122.073 259.366C122.84 259.693 123.526 260.105 124.129 260.602C124.74 261.099 125.223 261.7 125.578 262.403C125.933 263.106 126.111 263.93 126.111 264.874C126.111 266.153 125.784 267.278 125.131 268.251C124.477 269.217 123.533 269.974 122.297 270.521C121.068 271.06 119.58 271.33 117.833 271.33C116.136 271.33 114.662 271.067 113.412 270.542C112.169 270.016 111.196 269.249 110.493 268.241C109.797 267.232 109.42 266.004 109.364 264.555H113.252C113.309 265.315 113.543 265.947 113.955 266.451C114.367 266.955 114.903 267.332 115.564 267.58C116.232 267.829 116.977 267.953 117.801 267.953C118.661 267.953 119.413 267.825 120.06 267.57C120.713 267.307 121.224 266.945 121.594 266.483C121.963 266.014 122.151 265.467 122.158 264.842C122.151 264.274 121.984 263.805 121.658 263.436C121.331 263.06 120.873 262.747 120.283 262.499C119.701 262.243 119.019 262.016 118.238 261.817L115.756 261.178C113.959 260.716 112.538 260.016 111.494 259.079C110.457 258.134 109.939 256.881 109.939 255.318C109.939 254.033 110.287 252.907 110.983 251.941C111.686 250.975 112.641 250.226 113.849 249.693C115.056 249.153 116.423 248.884 117.95 248.884C119.499 248.884 120.855 249.153 122.02 249.693C123.192 250.226 124.112 250.968 124.779 251.92C125.447 252.864 125.791 253.951 125.812 255.18H122.009ZM139.894 264.118V254.636H143.75V271H140.011V268.092H139.84C139.471 269.008 138.864 269.757 138.019 270.339C137.181 270.922 136.147 271.213 134.919 271.213C133.846 271.213 132.898 270.975 132.074 270.499C131.257 270.016 130.618 269.317 130.156 268.401C129.695 267.477 129.464 266.362 129.464 265.055V254.636H133.32V264.459C133.32 265.496 133.605 266.32 134.173 266.93C134.741 267.541 135.487 267.847 136.41 267.847C136.978 267.847 137.529 267.708 138.061 267.431C138.594 267.154 139.031 266.742 139.372 266.195C139.72 265.641 139.894 264.949 139.894 264.118ZM147.886 271V249.182H151.743V257.342H151.903C152.102 256.945 152.382 256.522 152.744 256.075C153.107 255.62 153.597 255.233 154.214 254.913C154.832 254.587 155.621 254.423 156.58 254.423C157.844 254.423 158.984 254.746 159.999 255.393C161.022 256.032 161.832 256.98 162.428 258.237C163.032 259.487 163.334 261.021 163.334 262.839C163.334 264.636 163.039 266.163 162.45 267.42C161.86 268.678 161.058 269.636 160.042 270.297C159.026 270.957 157.876 271.288 156.59 271.288C155.653 271.288 154.875 271.131 154.257 270.819C153.639 270.506 153.142 270.13 152.766 269.69C152.396 269.242 152.109 268.82 151.903 268.422H151.679V271H147.886ZM151.668 262.818C151.668 263.876 151.817 264.803 152.116 265.599C152.421 266.394 152.858 267.016 153.426 267.463C154.001 267.903 154.697 268.124 155.514 268.124C156.366 268.124 157.08 267.896 157.656 267.442C158.231 266.98 158.664 266.352 158.955 265.556C159.254 264.754 159.403 263.841 159.403 262.818C159.403 261.803 159.257 260.901 158.966 260.112C158.675 259.324 158.241 258.706 157.666 258.259C157.091 257.811 156.374 257.587 155.514 257.587C154.69 257.587 153.991 257.804 153.415 258.237C152.84 258.67 152.403 259.278 152.105 260.059C151.814 260.84 151.668 261.76 151.668 262.818ZM179.546 258.962L176.03 259.345C175.931 258.99 175.757 258.656 175.508 258.344C175.267 258.031 174.94 257.779 174.528 257.587C174.116 257.396 173.612 257.3 173.015 257.3C172.213 257.3 171.538 257.474 170.991 257.822C170.451 258.17 170.185 258.621 170.192 259.175C170.185 259.651 170.359 260.038 170.714 260.336C171.076 260.634 171.673 260.879 172.504 261.071L175.295 261.668C176.843 262.001 177.994 262.531 178.747 263.255C179.507 263.979 179.89 264.928 179.897 266.099C179.89 267.129 179.588 268.038 178.992 268.827C178.402 269.608 177.582 270.219 176.531 270.659C175.48 271.099 174.272 271.32 172.909 271.32C170.906 271.32 169.294 270.901 168.072 270.062C166.85 269.217 166.122 268.042 165.888 266.536L169.649 266.174C169.819 266.913 170.181 267.47 170.735 267.847C171.289 268.223 172.01 268.411 172.898 268.411C173.814 268.411 174.549 268.223 175.103 267.847C175.664 267.47 175.945 267.005 175.945 266.451C175.945 265.982 175.764 265.595 175.401 265.29C175.046 264.984 174.492 264.75 173.74 264.587L170.948 264.001C169.379 263.674 168.218 263.124 167.465 262.349C166.712 261.568 166.339 260.581 166.346 259.388C166.339 258.379 166.612 257.506 167.166 256.767C167.727 256.021 168.505 255.446 169.499 255.041C170.501 254.629 171.655 254.423 172.962 254.423C174.879 254.423 176.389 254.832 177.49 255.648C178.597 256.465 179.283 257.57 179.546 258.962ZM190.215 271.32C188.581 271.32 187.179 270.961 186.007 270.244C184.842 269.526 183.944 268.536 183.312 267.271C182.687 266 182.374 264.537 182.374 262.882C182.374 261.22 182.694 259.754 183.333 258.482C183.972 257.204 184.874 256.21 186.039 255.499C187.211 254.782 188.596 254.423 190.194 254.423C191.522 254.423 192.697 254.668 193.72 255.158C194.75 255.641 195.57 256.327 196.181 257.214C196.792 258.095 197.14 259.125 197.225 260.304H193.539C193.39 259.516 193.035 258.859 192.474 258.333C191.92 257.8 191.177 257.534 190.247 257.534C189.459 257.534 188.766 257.747 188.17 258.173C187.573 258.592 187.108 259.196 186.774 259.984C186.447 260.773 186.284 261.717 186.284 262.818C186.284 263.933 186.447 264.892 186.774 265.695C187.101 266.49 187.559 267.104 188.148 267.538C188.745 267.964 189.444 268.177 190.247 268.177C190.815 268.177 191.323 268.07 191.77 267.857C192.225 267.637 192.605 267.321 192.91 266.909C193.216 266.497 193.425 265.996 193.539 265.407H197.225C197.133 266.565 196.792 267.591 196.202 268.486C195.613 269.374 194.81 270.07 193.795 270.574C192.779 271.071 191.586 271.32 190.215 271.32ZM200.392 271V254.636H204.131V257.364H204.301C204.6 256.419 205.111 255.691 205.836 255.18C206.567 254.661 207.402 254.402 208.339 254.402C208.552 254.402 208.79 254.413 209.053 254.434C209.323 254.448 209.547 254.473 209.724 254.509V258.056C209.561 257.999 209.301 257.95 208.946 257.907C208.598 257.857 208.261 257.832 207.934 257.832C207.231 257.832 206.599 257.985 206.038 258.29C205.484 258.589 205.047 259.004 204.728 259.537C204.408 260.07 204.248 260.684 204.248 261.38V271H200.392ZM212.286 271V254.636H216.143V271H212.286ZM214.225 252.314C213.614 252.314 213.089 252.112 212.648 251.707C212.208 251.295 211.988 250.801 211.988 250.226C211.988 249.643 212.208 249.15 212.648 248.745C213.089 248.333 213.614 248.127 214.225 248.127C214.843 248.127 215.369 248.333 215.802 248.745C216.242 249.15 216.462 249.643 216.462 250.226C216.462 250.801 216.242 251.295 215.802 251.707C215.369 252.112 214.843 252.314 214.225 252.314ZM220.108 277.136V254.636H223.901V257.342H224.125C224.324 256.945 224.604 256.522 224.966 256.075C225.329 255.62 225.819 255.233 226.437 254.913C227.055 254.587 227.843 254.423 228.802 254.423C230.066 254.423 231.206 254.746 232.221 255.393C233.244 256.032 234.054 256.98 234.65 258.237C235.254 259.487 235.556 261.021 235.556 262.839C235.556 264.636 235.261 266.163 234.672 267.42C234.082 268.678 233.28 269.636 232.264 270.297C231.248 270.957 230.098 271.288 228.812 271.288C227.875 271.288 227.097 271.131 226.479 270.819C225.861 270.506 225.364 270.13 224.988 269.69C224.618 269.242 224.331 268.82 224.125 268.422H223.965V277.136H220.108ZM223.89 262.818C223.89 263.876 224.04 264.803 224.338 265.599C224.643 266.394 225.08 267.016 225.648 267.463C226.224 267.903 226.92 268.124 227.736 268.124C228.589 268.124 229.302 267.896 229.878 267.442C230.453 266.98 230.886 266.352 231.177 265.556C231.476 264.754 231.625 263.841 231.625 262.818C231.625 261.803 231.479 260.901 231.188 260.112C230.897 259.324 230.464 258.706 229.888 258.259C229.313 257.811 228.596 257.587 227.736 257.587C226.912 257.587 226.213 257.804 225.638 258.237C225.062 258.67 224.626 259.278 224.327 260.059C224.036 260.84 223.89 261.76 223.89 262.818ZM247.03 254.636V257.619H237.623V254.636H247.03ZM239.945 250.716H243.802V266.078C243.802 266.597 243.88 266.994 244.036 267.271C244.199 267.541 244.412 267.726 244.675 267.825C244.938 267.925 245.229 267.974 245.549 267.974C245.79 267.974 246.01 267.957 246.209 267.921C246.415 267.886 246.572 267.854 246.678 267.825L247.328 270.84C247.122 270.911 246.827 270.989 246.444 271.075C246.067 271.16 245.606 271.21 245.059 271.224C244.093 271.252 243.223 271.107 242.449 270.787C241.675 270.46 241.06 269.956 240.606 269.274C240.158 268.592 239.938 267.74 239.945 266.717V250.716ZM250.255 271V254.636H254.112V271H250.255ZM252.194 252.314C251.583 252.314 251.058 252.112 250.617 251.707C250.177 251.295 249.957 250.801 249.957 250.226C249.957 249.643 250.177 249.15 250.617 248.745C251.058 248.333 251.583 248.127 252.194 248.127C252.812 248.127 253.337 248.333 253.771 248.745C254.211 249.15 254.431 249.643 254.431 250.226C254.431 250.801 254.211 251.295 253.771 251.707C253.337 252.112 252.812 252.314 252.194 252.314ZM265.215 271.32C263.617 271.32 262.232 270.968 261.06 270.265C259.888 269.562 258.979 268.578 258.333 267.314C257.694 266.05 257.374 264.572 257.374 262.882C257.374 261.192 257.694 259.711 258.333 258.44C258.979 257.168 259.888 256.181 261.06 255.478C262.232 254.775 263.617 254.423 265.215 254.423C266.813 254.423 268.198 254.775 269.37 255.478C270.542 256.181 271.447 257.168 272.086 258.44C272.733 259.711 273.056 261.192 273.056 262.882C273.056 264.572 272.733 266.05 272.086 267.314C271.447 268.578 270.542 269.562 269.37 270.265C268.198 270.968 266.813 271.32 265.215 271.32ZM265.236 268.23C266.103 268.23 266.827 267.992 267.41 267.516C267.992 267.033 268.425 266.387 268.709 265.577C269.001 264.768 269.146 263.866 269.146 262.871C269.146 261.87 269.001 260.964 268.709 260.155C268.425 259.338 267.992 258.688 267.41 258.205C266.827 257.722 266.103 257.481 265.236 257.481C264.349 257.481 263.61 257.722 263.02 258.205C262.438 258.688 262.001 259.338 261.71 260.155C261.426 260.964 261.284 261.87 261.284 262.871C261.284 263.866 261.426 264.768 261.71 265.577C262.001 266.387 262.438 267.033 263.02 267.516C263.61 267.992 264.349 268.23 265.236 268.23ZM280.186 261.412V271H276.329V254.636H280.015V257.417H280.207C280.583 256.501 281.184 255.773 282.007 255.233C282.838 254.693 283.865 254.423 285.086 254.423C286.216 254.423 287.199 254.665 288.037 255.148C288.882 255.631 289.536 256.33 289.998 257.246C290.466 258.163 290.697 259.274 290.69 260.581V271H286.833V261.178C286.833 260.084 286.549 259.228 285.981 258.61C285.42 257.992 284.642 257.683 283.648 257.683C282.973 257.683 282.373 257.832 281.848 258.131C281.329 258.422 280.921 258.844 280.623 259.398C280.331 259.952 280.186 260.624 280.186 261.412ZM307.544 258.962L304.028 259.345C303.929 258.99 303.755 258.656 303.506 258.344C303.265 258.031 302.938 257.779 302.526 257.587C302.114 257.396 301.61 257.3 301.013 257.3C300.211 257.3 299.536 257.474 298.989 257.822C298.449 258.17 298.183 258.621 298.19 259.175C298.183 259.651 298.357 260.038 298.712 260.336C299.074 260.634 299.671 260.879 300.502 261.071L303.293 261.668C304.841 262.001 305.992 262.531 306.745 263.255C307.505 263.979 307.888 264.928 307.895 266.099C307.888 267.129 307.586 268.038 306.99 268.827C306.4 269.608 305.58 270.219 304.529 270.659C303.478 271.099 302.27 271.32 300.907 271.32C298.904 271.32 297.292 270.901 296.07 270.062C294.848 269.217 294.12 268.042 293.886 266.536L297.647 266.174C297.817 266.913 298.179 267.47 298.733 267.847C299.287 268.223 300.008 268.411 300.896 268.411C301.812 268.411 302.547 268.223 303.101 267.847C303.662 267.47 303.943 267.005 303.943 266.451C303.943 265.982 303.762 265.595 303.4 265.29C303.044 264.984 302.49 264.75 301.738 264.587L298.946 264.001C297.377 263.674 296.216 263.124 295.463 262.349C294.71 261.568 294.337 260.581 294.344 259.388C294.337 258.379 294.61 257.506 295.164 256.767C295.725 256.021 296.503 255.446 297.498 255.041C298.499 254.629 299.653 254.423 300.96 254.423C302.877 254.423 304.387 254.832 305.488 255.648C306.596 256.465 307.281 257.57 307.544 258.962Z" fill="#0066FF"/>
<defs>
<filter id="filter0_d_333_3449" x="18.2905" y="0" width="418.517" height="446" filterUnits="userSpaceOnUse" color-interpolation-filters="sRGB">
<feFlood flood-opacity="0" result="BackgroundImageFix"/>
<feColorMatrix in="SourceAlpha" type="matrix" values="0 0 0 0 0 0 0 0 0 0 0 0 0 0 0 0 0 0 127 0" result="hardAlpha"/>
<feOffset dx="10" dy="10"/>
<feGaussianBlur stdDeviation="10"/>
<feComposite in2="hardAlpha" operator="out"/>
<feColorMatrix type="matrix" values="0 0 0 0 0 0 0 0 0 0 0 0 0 0 0 0 0 0 0.25 0"/>
<feBlend mode="normal" in2="BackgroundImageFix" result="effect1_dropShadow_333_3449"/>
<feBlend mode="normal" in="SourceGraphic" in2="effect1_dropShadow_333_3449" result="shape"/>
</filter>
</defs>
</svg>
