<svg width="143" height="211" viewBox="0 0 143 211" fill="none" xmlns="http://www.w3.org/2000/svg">
<path fill-rule="evenodd" clip-rule="evenodd" d="M60.5629 31.8695C57.6396 29.855 55.2773 27.0593 54.5683 23.4073C52.5255 12.885 67.5116 11.3047 71.705 15.7681C75.8984 20.2315 79.1091 33.5433 75.7443 35.4434C74.4024 36.2012 71.0879 36.1138 67.4579 35.0675L73.1381 48.4199L61.5553 51.5234L60.5629 31.8695Z" fill="#915B3C"/>
<path fill-rule="evenodd" clip-rule="evenodd" d="M73.426 17.8153C73.1302 17.1703 72.6488 16.4951 72.2513 15.9165C71.7387 15.1705 71.0982 14.5458 70.4248 13.9757C69.157 12.9024 67.7408 12.0058 66.2647 11.3422C63.5684 10.1302 60.4728 9.84387 57.7935 10.9241C56.4408 11.4695 55.2262 12.3668 54.3086 13.5643C53.4796 14.6462 52.7918 16.0962 51.4627 16.5433C50.0166 17.0297 48.3204 16.0927 46.9259 15.6069C45.3537 15.0594 43.7622 14.7799 42.1391 14.9404C39.4201 15.2094 37.2094 16.7447 35.9872 19.3622C34.6865 22.1476 34.1916 25.8539 36.2531 28.5303C36.6362 29.0279 37.0627 29.4196 37.5979 29.6956C38.0888 29.9486 38.794 30.1688 39.1077 30.6992C39.441 31.2631 39.1438 32.1854 39.0942 32.788C39.0232 33.6515 39.0132 34.5405 39.325 35.3748C39.8371 36.7448 41.0806 37.8505 42.2614 38.5248C43.4631 39.2109 44.7764 39.4371 46.0914 39.3512C46.9695 39.2939 47.8459 39.1572 48.6764 38.8679C49.0887 38.7243 49.4285 38.508 49.8111 38.3059C50.1831 38.1094 50.4328 38.1553 50.8272 38.2825C52.6595 38.8737 54.4435 38.8144 56.2066 38.181C57.6946 37.6464 59.3499 36.8075 60.3121 35.4321C61.3806 33.9045 60.9252 32.3148 60.1435 30.6954C60.5329 30.7736 61.5122 30.6243 60.762 30.0975C60.4648 29.8889 60.0101 29.8934 59.6789 29.8126C59.2932 29.7186 58.8879 29.5721 58.5462 29.3416C57.1666 28.4111 57.5702 25.657 58.7867 24.895C60.5941 23.7629 61.7812 26.4298 63.3801 26.7735C64.2994 26.9712 64.9932 26.1785 65.4439 25.4381C66.0476 24.4463 66.3256 23.2722 66.5232 22.1003C66.686 21.1351 66.8182 20.1652 66.9898 19.2024C67.0698 18.7527 67.4151 17.4497 66.9687 17.0852C68.3039 16.426 70.0319 16.5912 71.4527 17.0343C72.0399 17.2176 72.5166 17.4654 72.9348 17.9546C73.0243 18.0594 73.245 18.3833 73.4058 18.3559C73.7051 18.3049 73.5003 17.9773 73.426 17.8153Z" fill="#191847"/>
<path fill-rule="evenodd" clip-rule="evenodd" d="M48.8281 140.594C60.8142 143.947 71.1554 145.623 79.8518 145.623C88.5481 145.623 96.6257 143.042 104.084 137.879C92.355 134.438 82.6953 132.717 75.1053 132.717C67.5153 132.717 58.7563 135.343 48.8281 140.594Z" fill="#1F28CF"/>
<path fill-rule="evenodd" clip-rule="evenodd" d="M90.228 150.455C90.1124 150.282 90.0148 150.093 89.9374 149.888C88.3352 145.651 62.6728 99.9422 60.1162 91.5854H89.0085C90.9523 97.9392 99.7013 137.812 100.933 145.767C104.817 158.316 112.816 198.956 113.837 201.771C114.911 204.733 108.867 207.818 107.257 204.177C104.694 198.384 98.5879 182.353 95.8691 172.564C93.3202 163.388 91.2447 155.132 90.228 150.455Z" fill="#784931"/>
<path fill-rule="evenodd" clip-rule="evenodd" d="M66.5901 156.036C54.8577 159.001 11.9429 164.362 8.99786 165.203C5.96837 166.068 3.31209 159.823 7.0567 158.471C13.015 156.318 29.4328 151.345 39.387 149.316C47.3936 147.684 54.6996 146.352 59.6048 145.572C59.1892 131.793 57.2896 98.7271 58.5347 91.5854H84.099C82.905 98.4338 72.8121 148.403 70.9362 153.405C70.3409 155.191 68.5646 155.98 66.5901 156.036Z" fill="#915B3C"/>
<path fill-rule="evenodd" clip-rule="evenodd" d="M7.3288 156.808C5.76224 156.517 4.61418 156.436 3.88463 156.564C2.99732 156.721 1.72858 157.097 0.0784156 157.693C0.259916 158.722 1.89109 167.973 4.97193 185.445C7.48332 185.746 8.69708 185.103 8.61321 183.515C8.52934 181.928 8.47339 180.607 8.44537 179.552L11.9214 165.639C11.9883 165.371 11.8255 165.1 11.5578 165.033C11.5532 165.032 11.5486 165.031 11.544 165.03L9.38648 164.556C8.46171 163.236 7.92004 162.126 7.76146 161.227C7.63262 160.496 7.74979 159.435 8.11297 158.043L8.11298 158.043C8.25235 157.509 7.93243 156.963 7.39843 156.824C7.37541 156.818 7.35219 156.813 7.3288 156.808Z" fill="#E4E4E4"/>
<path fill-rule="evenodd" clip-rule="evenodd" d="M105.422 203.706C104.863 205.198 104.584 206.315 104.584 207.056C104.584 207.957 104.734 209.271 105.034 211C106.079 211 115.473 211 133.215 211C133.947 208.579 133.525 207.272 131.947 207.079C130.369 206.886 129.058 206.712 128.015 206.556L114.917 200.717C114.665 200.604 114.369 200.718 114.257 200.97C114.255 200.974 114.253 200.978 114.251 200.983L113.409 203.025C111.949 203.706 110.762 204.047 109.849 204.047C109.107 204.047 108.082 203.748 106.775 203.148L106.775 203.148C106.273 202.918 105.68 203.139 105.45 203.64C105.44 203.662 105.431 203.684 105.422 203.706Z" fill="#E4E4E4"/>
<path fill-rule="evenodd" clip-rule="evenodd" d="M58.6172 91.5857C69.8825 88.3627 80.5415 88.3627 90.5942 91.5857C94.0917 107.543 102.59 113.876 104.084 138.342C87.0967 146.782 66.1118 132.322 48.6243 140.553C43.6279 129.039 50.6229 101.311 58.6172 91.5857Z" fill="#2B44FF"/>
<path fill-rule="evenodd" clip-rule="evenodd" d="M85.2624 58.6701L100.692 46.3046C102.937 42.4311 105.274 39.3184 107.701 36.9663C108.482 36.4661 109.917 35.9936 108.971 38.6814C108.024 41.3692 107.15 44.239 107.984 44.8684C108.819 45.4979 110.383 44.1371 111.441 45.241C112.146 45.9769 109.389 47.8221 103.169 50.7765L92.763 64.3274L85.2624 58.6701ZM113.403 61.8459L120.178 56.4018C120.525 52.2108 121.427 49.9736 122.887 49.6904C123.919 48.9688 122.853 54.3754 124.908 53.5606C126.962 52.7457 131.484 47.9582 132.519 48.5859C134.05 49.5145 133.497 53.2925 132.416 55.3139C130.397 59.0918 128.441 60.6069 123.373 63.0328C120.723 64.3012 117.984 66.39 115.157 69.2991L113.403 61.8459Z" fill="#915B3C"/>
<path fill-rule="evenodd" clip-rule="evenodd" d="M76.5773 58.053C82.5483 56.935 90.3027 54.2649 97.8618 47.3611L102.519 54.2262C97.6751 61.0882 90.2638 67.3312 83.0097 68.4012C77.293 69.2445 73.1724 62.8764 76.5773 58.053Z" fill="#2026A2"/>
<path fill-rule="evenodd" clip-rule="evenodd" d="M86.74 68.5875C93.3701 69.0515 103.691 65.3059 117.702 57.3505C122.762 64.3678 125.441 69.5345 125.737 72.8506C114.094 81.8105 103.629 86.7352 94.6088 88.5291C95.844 93.8515 96.0915 99.0794 94.7182 104.138C91.895 114.539 63.8792 110.308 55.2954 113.626C46.5378 96.5232 56.0091 87.2749 53.9773 75.7015C51.7523 63.0273 58.4883 41.7272 59.9854 41.4632L73.6382 39.0559C76.098 48.6012 81.7704 58.5988 86.74 68.5875Z" fill="#1F28CF"/>
<path fill-rule="evenodd" clip-rule="evenodd" d="M107.278 29.1606C107.278 41.9713 108.289 52.3564 121.858 52.3564C135.427 52.3564 136.438 41.9713 136.438 29.1606" fill="#0066FF"/>
<path fill-rule="evenodd" clip-rule="evenodd" d="M125.895 21.1677C125.398 22.0277 124.954 22.9048 124.563 23.7952C124.549 21.9615 124.65 20.1144 124.927 18.2421C125.4 15.0349 126.123 11.8443 126.802 8.65885C127.291 6.36967 127.26 2.25784 129.112 0.433591C129.621 0.0393397 129.743 0.812792 129.743 1.14846C129.749 1.21941 129.741 -0.221613 129.248 0.0293961C126.317 1.54325 125.367 6.30329 124.429 8.68653C123.06 12.1652 121.895 15.7212 121.415 19.3405C121.294 20.2547 121.228 21.1687 121.213 22.0811C121.113 21.8371 121.02 21.5912 120.916 21.348C119.224 17.3802 116.941 13.5087 114.094 9.93808C113.393 9.05955 104.58 0.39086 103.89 1.71766C103.958 1.91035 104.101 2.07026 104.318 2.19738C104.331 2.21189 104.331 2.20382 104.324 2.18233C104.841 3.0184 106.313 4.30972 106.771 5.04233C107.925 6.88593 108.822 8.8424 109.733 10.7615C111.658 14.8172 113.443 18.9137 115.174 23.0188C115.578 23.975 115.998 24.9258 116.426 25.8737C112.008 19.5009 106.114 13.7153 98 10.4033C100.771 11.8131 102.588 14.4657 104.46 16.4966C106.717 18.9462 109.094 21.33 111.356 23.7769C114.023 26.6635 117.161 29.7033 119.727 32.8976C122.212 38.1151 124.627 43.3382 126.118 48.8228C125.507 46.9278 126.07 44.3092 125.965 42.3204C125.883 40.7375 125.697 39.1675 125.444 37.6004C125.757 38.3072 126.028 39.0146 126.15 39.6725C126.038 38.569 125.909 37.4725 125.771 36.3817C126.126 35.3604 126.475 34.4075 126.71 33.6225C127.916 29.5956 129.353 25.638 131.309 21.7807C133.119 18.2125 135.196 14.6898 137.458 11.2746C138.514 9.68224 139.583 8.09583 140.647 6.50673C141.343 5.46641 142.005 3.80072 142.974 2.80394C136.711 8.52985 129.869 14.2972 125.895 21.1677Z" fill="#0FB600"/>
</svg>
